<?xml version="1.0"?><svg xmlns="http://www.w3.org/2000/svg" viewBox="0 0 256 256" width="30px" height="30px"> <path fill="#000000" d="M174.2,125.6l-9.3,9.3l68.1,68.1c-3.9,2.3-8.4,3.7-13.2,3.7H36.2c-3.1,0-6-0.6-8.8-1.6l68.3-68.3c20.6,16.1,50.4,14.8,69.4-4.2l74.3-74.3c4.1,4.6,6.6,10.6,6.6,17.3v104.9c0,4.9-1.4,9.3-3.7,13.2L174.2,125.6z M100.2,123.3L27.7,50.9c2.7-0.9,5.5-1.5,8.5-1.5h183.5c3,0,5.8,0.6,8.5,1.5l-72.4,72.4C140.4,138.7,115.5,138.7,100.2,123.3z M16.5,197.5c-4-4.6-6.5-10.5-6.5-17V75.5c0-6.6,2.6-12.6,6.6-17.3l69.5,69.5L16.5,197.5z"/></svg>