<?xml version="1.0" encoding="UTF-8"?>
<svg data-bbox="0 0 1080 1080" viewBox="0 0 1080 1080" xmlns="http://www.w3.org/2000/svg" data-type="ugc">
    <g>
        <path fill="none" d="M1080 0v1080H0V0z"/>
        <path d="M314.88 832.22c-37.52-31.6-43.44-77.02-59.24-116.51-9.87-25.67-27.65-47.39-45.42-69.12 23.7 67.14 9.87 114.54 67.14 161.93-9.87-3.95-19.75-11.85-27.65-17.77-45.42-37.52-112.56-43.44-140.21-104.66 7.9 45.42 43.44 84.92 80.97 110.59 37.52 23.7 84.92 21.72 124.41 35.55Zm98.73 23.7c5.92-1.97 13.82-1.97 21.72-3.95-27.65-3.95-53.32-13.82-73.07-31.6-29.62-27.65-55.29-55.29-86.89-77.02 33.57 67.14 45.42 94.79 100.71 106.64 0 0-15.8-1.97-23.7-3.95-59.24-11.85-130.33 3.95-173.78-45.42 17.77 31.6 51.34 57.27 82.94 69.12 51.34 15.8 104.66-1.97 152.06-13.82Zm79-3.95c-94.79 0-144.16 82.94-236.97 27.65 45.42 55.29 118.49 59.24 177.73 21.72 23.7-15.8 45.42-37.52 75.04-37.52 45.42 0 94.79 47.39 136.26 90.84 7.9-5.92 13.82-11.85 19.75-17.77-43.44-41.47-106.64-84.92-171.8-84.92Zm-266.6-92.82s-11.85-21.72-15.8-35.55c-13.82-53.32-5.92-118.49-29.62-169.83 3.95 29.62-7.9 55.29-9.87 82.94-3.95 37.52 9.87 63.19 19.75 80.97 0 0-13.82-17.77-19.75-27.65-27.65-43.44-84.92-73.07-88.86-126.39-7.9 116.51 73.07 148.11 144.16 195.5Zm-27.65-345.58c7.9-15.8 11.85-35.55 15.8-53.32-3.95 7.9-7.9 15.8-13.82 21.72-37.52 31.6-59.24 49.37-69.12 98.74l3.95-43.44c3.95-43.44-19.75-90.84 5.92-128.36-25.67 27.65-39.5 63.19-39.5 98.74 0 47.39 27.65 80.97 29.62 126.39 7.9-47.39 47.39-80.97 67.14-120.46Zm-13.82-86.89c17.77-15.8 39.5-29.62 55.29-49.37 17.77-23.7 33.57-51.34 57.27-73.07-31.6 13.82-67.14 25.67-88.86 59.24-11.85 19.75-13.82 43.44-23.7 63.19Zm-39.49 94.79c7.9-15.8 21.72-31.6 35.55-43.44 35.55-25.67 71.09-59.24 73.07-102.69-19.75 47.39-80.97 55.29-94.79 104.66 0 0 7.9-29.62 9.87-35.55 9.87-33.57 7.9-73.07 41.47-94.79-65.17 13.82-69.12 84.92-65.17 138.23 0 11.85 1.97 21.72 0 33.57Zm9.87 229.07s-3.95-37.52 1.97-53.32c15.8-47.39 31.6-98.74 29.62-148.11-15.8 59.24-65.17 78.99-43.44 159.96-7.9-15.8-9.87-33.57-15.8-49.37-11.85-43.44-45.42-80.97-35.55-132.31-15.8 45.42-15.8 80.97 0 128.36 9.87 35.55 45.42 61.22 63.19 94.79Zm610.2 181.68c37.52-31.6 43.44-77.02 59.24-116.51 9.87-25.67 27.65-47.39 45.42-69.12-23.7 67.14-9.87 114.54-67.14 161.93 9.87-3.95 19.75-11.85 27.65-17.77 45.42-37.52 112.56-43.44 140.21-104.66-7.9 45.42-43.44 84.92-80.97 110.59-37.52 23.7-84.92 21.72-124.41 35.55Zm-98.73 23.7c-5.92-1.97-13.82-1.97-21.72-3.95 27.65-3.95 53.32-13.82 73.07-31.6 29.62-27.65 55.29-55.29 86.89-77.02-33.57 67.14-45.42 94.79-100.71 106.64 0 0 15.8-1.97 23.7-3.95 59.24-11.85 130.33 3.95 173.78-45.42-17.77 31.6-51.34 57.27-82.94 69.12-51.34 15.8-104.66-1.97-152.06-13.82Zm-79-3.95c94.79 0 144.16 82.94 236.97 27.65-45.42 55.29-118.49 59.24-177.73 21.72-23.7-15.8-45.42-37.52-75.04-37.52-45.42 0-94.79 47.39-136.26 90.84-7.9-5.92-13.82-11.85-19.75-17.77 43.44-41.47 106.64-84.92 171.8-84.92Zm266.6-92.82s11.85-21.72 15.8-35.55c13.82-53.32 5.92-118.49 29.62-169.83-3.95 29.62 7.9 55.29 9.87 82.94 3.95 37.52-9.87 63.19-19.75 80.97 0 0 13.82-17.77 19.75-27.65 27.65-43.44 84.92-73.07 88.86-126.39 7.9 116.51-73.07 148.11-144.16 195.5Zm27.65-345.58c-7.9-15.8-11.85-35.55-15.8-53.32 3.95 7.9 7.9 15.8 13.82 21.72 37.52 31.6 59.24 49.37 69.12 98.74l-3.95-43.44c-3.95-43.44 19.75-90.84-5.92-128.36 25.67 27.65 39.5 63.19 39.5 98.74 0 47.39-27.65 80.97-29.62 126.39-7.9-47.39-47.39-80.97-67.14-120.46Zm13.82-86.89c-17.77-15.8-39.5-29.62-55.29-49.37-17.77-23.7-33.57-51.34-57.27-73.07 31.6 13.82 67.14 25.67 88.86 59.24 11.85 19.75 13.82 43.44 23.7 63.19Zm39.49 94.79c-7.9-15.8-21.72-31.6-35.55-43.44-35.55-25.67-71.09-59.24-73.07-102.69 19.75 47.39 80.97 55.29 94.79 104.66 0 0-7.9-29.62-9.87-35.55-9.87-33.57-7.9-73.07-41.47-94.79 65.17 13.82 69.12 84.92 65.17 138.23 0 11.85-1.97 21.72 0 33.57Zm-9.87 229.07s3.95-37.52-1.97-53.32c-15.8-47.39-31.6-98.74-29.62-148.11 15.8 59.24 65.17 78.99 43.44 159.96 7.9-15.8 9.87-33.57 15.8-49.37 11.85-43.44 45.42-80.97 35.55-132.31 15.8 45.42 15.8 80.97 0 128.36-9.87 35.55-45.42 61.22-63.19 94.79Z" fill="#000000"/>
        <g>
            <g>
                <path d="M540 842.98c-18.45 0-36.94 3.12-55.4 9.21 0 10.4-.04 20.94.74 31.31.6 8.37 1.68 16.63 3.71 24.58 5.85 23.15 19.44 43.81 50.95 57.68 31.27-13.76 44.89-34.21 50.81-57.15 2.07-7.95 3.22-16.25 3.82-24.62.81-10.54.77-21.26.77-31.8-18.45-6.09-36.94-9.21-55.4-9.21m36.94 66.47h-25.88v25.84h-22.13v-25.84h-25.88v-22.17h25.88v-25.84h22.13v25.84h25.88z" fill="#ff0000"/>
                <path fill="#ffffff" d="M576.94 887.28v22.17h-25.87v25.84h-22.14v-25.84h-25.87v-22.17h25.87v-25.84h22.14v25.84z"/>
            </g>
        </g>
        <g>
            <path d="M840.51 371.11c-16.42-38.84-39.94-73.72-69.89-103.67-29.96-29.96-64.83-53.47-103.66-69.9-40.21-17-82.92-25.63-126.95-25.63s-86.74 8.63-126.95 25.63c-38.83 16.43-73.71 39.94-103.66 69.9-29.95 29.95-53.46 64.82-69.89 103.67-17 40.21-25.63 82.92-25.63 126.94s8.63 86.74 25.63 126.95c16.43 38.83 39.94 73.72 69.89 103.66 29.96 29.95 64.83 53.47 103.66 69.89 29.73 12.58 60.83 20.57 92.82 23.87 8.91.93 17.89 1.48 26.93 1.68.56 0 1.13.03 1.7.03 1.83.04 3.67.05 5.51.05 1.96 0 3.92-.02 5.87-.05.29 0 .56 0 .85-.02 9.52-.19 18.97-.78 28.35-1.79 31.66-3.36 62.44-11.32 91.88-23.77 38.83-16.42 73.71-39.94 103.66-69.89S824.1 663.83 840.52 625c17-40.21 25.63-82.92 25.63-126.95s-8.63-86.73-25.63-126.94Zm-36.32 304.18a320.9 320.9 0 0 1-79.99 82.16c-.04.02-.06.04-.09.06-46.9 33.37-103.18 54.36-164.05 58.15-3.12.2-6.24.34-9.38.44-1.31.05-2.63.09-3.95.12-.29 0-.56 0-.85.02-1.96.04-3.92.06-5.87.06-1.06 0-2.12 0-3.17-.02-.6 0-1.2-.02-1.8-.03h-.54c-.56 0-1.14-.02-1.7-.04q-6.18-.135-12.3-.51c-100.93-6.12-189.3-59.51-243.22-138.25-.3-.43-.6-.87-.89-1.31-.35-.5-.69-1-1.03-1.51-.54-.8-1.06-1.6-1.59-2.4-32.87-50.07-52-109.91-52-174.16 0-175.47 142.76-318.23 318.24-318.23S858.25 322.6 858.25 498.07c0 65.55-19.93 126.54-54.05 177.23Z" fill="#000000"/>
            <path d="m803.34 674.69-5.03-6.49v-.49l-.61-.29-.19-.09c-3.66-4.78-7.32-9.56-11-14.33l-7.63-9.85-.35-.45-8.78-11.31-29.12 25.84-59.26-54.37-49.21-57.98-1.22 3.84c-.15.47-.24.77-.31.99l-.11.33c-2.22 6.83-4.44 13.66-6.67 20.49-2.83 8.71-5.67 17.41-8.49 26.11-3.83-3.47-7.66-6.95-11.5-10.41l-17.07-15.45c-12.92-11.68-25.84-23.38-38.8-35.05-1.7-1.54-3.5-3.06-5.41-4.66-.98-.83-2.01-1.7-3.08-2.62l-1.49-1.27-1.91 1.72-1.25 1.12c-13.62 11.77-23.69 22.17-33.44 32.22-9.1 9.4-18.5 19.09-30.81 29.92l-28.89-45.51-44.21 53.18-9.61 8.91c-17.42 15.99-34.8 31.94-52.25 47.93l-.2.18-.28-.27-.49.48-28.94-25.67-31.96 40.82c.53.8 1.05 1.61 1.59 2.4.28.42.56.83.84 1.24l.19.27.89 1.31.31.46c53.95 78.49 142.18 131.68 242.91 137.8q6.12.375 12.3.51c.56.02 1.14.03 1.7.04h.54c.6 0 1.2.02 1.8.03 1.05 0 2.11.02 3.17.02 1.96 0 3.92-.02 5.87-.06.29 0 .56 0 .85-.02 1.32-.03 2.64-.06 3.95-.12 3.14-.1 6.26-.24 9.38-.44 60.87-3.79 117.16-24.78 164.05-58.15.03-.03.05-.04.09-.06a320.8 320.8 0 0 0 79.99-82.16l-.85-.6Zm-471.53-13.96-6.99 10.43c-4.46-3.17-8.27-4.37-11.6-3.66-4.93 1.05-7.36 5.81-9.5 10-.68 1.33-1.34 2.61-2 3.63-3.68-1.95-6.16-4.99-8.74-10.56l-1.07-2.3-2.15 1.34c-1.51.95-3.01 1.9-4.51 2.83-2.32 1.47-4.68 2.95-7.05 4.42l-1.13-1.6 29.26-37.39 25.59 22.71-.09.13ZM677.3 605.2c-.35 1.11-1.04 2.32-1.74 3.58-.72 1.29-1.52 2.69-2.06 4.2-6.63-1.97-12.1-4.92-18.42-8.49l-1.88-1.06-3.83 6.24c-2.97 4.85-5.9 9.64-8.84 14.44-3.39-2.96-5.94-7.39-8.67-14.91l-.94-2.58-21.8 13.5c-10.27-2.75-19.08-10.45-27.61-17.89-6.55-5.72-12.74-11.13-19.22-13.91l-.98-.42-.94.5c-7.32 3.84-14.01 7.77-20.48 11.56-5.88 3.45-11.96 7.01-18.43 10.46-6.56-7.7-8.08-11.34-11.51-22.66l-.63-2.1-2.11.6c-12.99 3.67-40.78 21.35-52.06 30.23l-11.8-8.24-.98 2.76c-2.41 6.75-4.31 7.91-7.45 9.84-.21.14-.45.28-.68.43-1.71-2.57-3.41-4.45-5.07-6.28-2.02-2.23-3.93-4.34-5.86-7.67l-1.14-1.96-1.94 1.16c-6.42 3.84-11.93 6.97-18.79 8.99l-8.6-5.25h-.02l7.93-7.36 10.27-12.35 10.6-12.77 19.6-23.57 26.49 41.72 1.22 1.91.69 1.09 1.96-1.71c13.43-11.65 23.4-21.94 33.04-31.89 3.84-3.97 7.74-7.98 11.9-12.12 5.39-5.05 10.78-10.11 16.16-15.18.36-.34.71-.71 1.04-1.08 1.12-1 2.26-2 3.43-3.02.21-.19.42-.37.63-.55q.15-.12.3-.27c.33.28.66.55.98.82.21.19.42.37.63.55.24.21.48.41.72.61 1.61 1.36 3.15 2.66 4.58 3.95 12.94 11.68 25.86 23.37 38.78 35.05l17.07 15.44c2.74 2.49 5.5 4.97 8.23 7.46.13.11.24.22.37.34 1.82 1.64 3.65 3.29 5.45 4.94l2.56 2.33 1.07-3.29c3.18-9.81 6.37-19.6 9.57-29.4 1.95-6 3.91-12.01 5.86-18.01l20.97 24.71 11.59 13.65 10.83 12.77c-.02.05-.04.11-.05.16Zm121.55 71.2c-.04.05-.07.11-.11.16-.24.36-.5.73-.75 1.12-3.09-1.85-6.16-3.76-9.14-5.62-1.39-.86-2.77-1.72-4.17-2.58l-2.13-1.31-1.07 2.27c-2.49 5.28-4.86 8.18-8.39 10.04-.63-.97-1.25-2.16-1.9-3.41-2.08-4.02-4.44-8.58-9.23-9.61-.62-.13-1.24-.2-1.89-.2-2.77 0-5.86 1.22-9.37 3.67l-6.89-10.17-.17-.25 25.47-22.59 5.94 7.65.28.36 7.85 10.12 15.72 20.27-.08.11Z" fill="#000000"/>
            <path d="m798.93 676.3-.08.11c-.04.05-.07.11-.11.16-.24.36-.5.73-.75 1.12-3.09-1.85-6.16-3.76-9.14-5.62-1.39-.86-2.77-1.72-4.17-2.58l-2.13-1.31-1.07 2.27c-2.49 5.28-4.86 8.18-8.39 10.04-.63-.97-1.25-2.16-1.9-3.41-2.08-4.02-4.44-8.58-9.23-9.61-.62-.13-1.24-.2-1.89-.2-2.77 0-5.86 1.22-9.37 3.67l-6.89-10.17-.17-.25 25.47-22.59 5.94 7.65.28.36 7.85 10.12 15.72 20.27Z" fill="#ffffff"/>
            <path d="M677.35 605.04c-.02.05-.04.11-.05.16-.35 1.11-1.04 2.32-1.74 3.58-.72 1.29-1.52 2.69-2.06 4.2-6.63-1.97-12.1-4.92-18.42-8.49l-1.88-1.06-3.83 6.24c-2.97 4.85-5.9 9.64-8.84 14.44-3.39-2.96-5.94-7.39-8.67-14.91l-.94-2.58-21.8 13.5c-10.27-2.75-19.08-10.45-27.61-17.89-6.55-5.72-12.74-11.13-19.22-13.91l-.98-.42-.94.5c-7.32 3.84-14.01 7.77-20.48 11.56-5.88 3.45-11.96 7.01-18.43 10.46-6.56-7.7-8.08-11.34-11.51-22.66l-.63-2.1-2.11.6c-12.99 3.67-40.78 21.35-52.06 30.23l-11.8-8.24-.98 2.76c-2.41 6.75-4.31 7.91-7.45 9.84-.21.14-.45.28-.68.43-1.71-2.57-3.41-4.45-5.07-6.28-2.02-2.23-3.93-4.34-5.86-7.67l-1.14-1.96-1.94 1.16c-6.42 3.84-11.93 6.97-18.79 8.99l-8.6-5.25h-.02l7.93-7.36 10.27-12.35 10.6-12.77 19.6-23.57 26.49 41.72 1.22 1.91.69 1.09 1.96-1.71c13.43-11.65 23.4-21.94 33.04-31.89 3.84-3.97 7.74-7.98 11.9-12.12 5.39-5.05 10.78-10.11 16.16-15.18.36-.34.71-.71 1.04-1.08 1.12-1 2.26-2 3.43-3.02.21-.19.42-.37.63-.55q.15-.12.3-.27c.33.28.66.55.98.82.21.19.42.37.63.55.24.21.48.41.72.61 1.61 1.36 3.15 2.66 4.58 3.95 12.94 11.68 25.86 23.37 38.78 35.05l17.07 15.44c2.74 2.49 5.5 4.97 8.23 7.46.13.11.24.22.37.34 1.82 1.64 3.65 3.29 5.45 4.94l2.56 2.33 1.07-3.29c3.18-9.81 6.37-19.6 9.57-29.4 1.95-6 3.91-12.01 5.86-18.01l20.97 24.71 11.59 13.65 10.83 12.77Z" fill="#ffffff"/>
            <path d="m331.9 660.6-.09.13-6.99 10.43c-4.46-3.17-8.27-4.37-11.6-3.66-4.93 1.05-7.36 5.81-9.5 10-.68 1.33-1.34 2.61-2 3.63-3.68-1.95-6.16-4.99-8.74-10.56l-1.07-2.3-2.15 1.34c-1.51.95-3.01 1.9-4.51 2.83-2.32 1.47-4.68 2.95-7.05 4.42l-1.13-1.6 29.26-37.39 25.59 22.71Z" fill="#ffffff"/>
        </g>
        <path d="M542.43 656.46c1.74.3 3.5.49 5.21.91 15.41 3.79 25.6 17.12 25.77 33.67.03 3.1 0 6.2 0 9.3 0 .15-.03.31-.06.55h-27.11v6.35h27.13v6.33h-27.15v6.35h27.13v6.32h-27.11v6.32h27.11v6.35h-27.12v6.35h27.12c.03.3.07.51.07.72 0 5.38.06 10.77-.04 16.15-.31 15.62-11.3 29.48-25.93 32.79-17.73 4.01-34.84-6.84-39.58-25.1-.74-2.85-1.09-5.77-1.09-8.72v-15.12c0-.19.02-.37.04-.69h27.15v-6.36h-27.12v-6.32h27.1v-6.34h-27.13v-6.3h27.12v-6.38h-27.11v-6.32h27.12v-6.32h-27.09c-.04-.33-.09-.57-.09-.8 0-3.44-.04-6.89.03-10.33.33-15.55 11.1-29.17 25.65-32.42 1.75-.39 3.53-.62 5.3-.93h4.68Zm40.42 95.31c-.86-.02-1.73 0-2.62 0 0 2.24.05 4.34-.02 6.44-.09 3.18 0 6.4-.46 9.54-1.42 10.09-5.89 18.54-13.36 25.1-9.72 8.52-20.95 11.46-33.35 8.9-8.84-1.82-16.2-6.5-22.02-13.7-5.29-6.54-8.41-14.11-9.02-22.67-.29-4.07-.16-8.18-.22-12.28v-1.22h-5.98c0 4.15-.07 8.22.04 12.29.08 2.19.32 4.43.78 6.59 4.15 18.84 15.21 30.93 32.92 36.4 1.62.49 3.31.77 4.96 1.15v15.83c1.83.04 3.67.05 5.51.05 1.96 0 3.92-.02 5.87-.05.29 0 .56 0 .85-.02v-15.76c.14-.05.23-.08.32-.08 5.88-.86 11.43-2.73 16.56-5.86 12.6-7.73 20.28-19.07 22.59-34.22.21-1.41.34-2.85.49-4.27v-12.02c-1.29-.05-2.57-.1-3.84-.13Z" fill="#ffffff"/>
        <g>
            <path d="M284.02 489.14h-7.12l-7.21-27.98v27.98h-7.35v-34.98h11.95l6.15 25.09 6.28-25.09h11.81v34.98h-7.35v-28.03l-7.17 28.03Z" fill="#000000"/>
            <path d="M331.04 458.55c3.08 3.31 4.62 7.69 4.62 13.12s-1.54 9.81-4.62 13.12-7.09 4.97-12.01 4.97-8.97-1.66-12.04-4.97-4.6-7.69-4.6-13.12 1.53-9.81 4.6-13.12 7.08-4.97 12.04-4.97 8.93 1.66 12.01 4.97m-18.19 4.8c-1.64 1.98-2.46 4.75-2.46 8.32s.82 6.34 2.46 8.32 3.69 2.97 6.17 2.97 4.54-.99 6.17-2.97 2.46-4.75 2.46-8.32-.82-6.34-2.46-8.32-3.69-2.97-6.17-2.97-4.54.99-6.17 2.97" fill="#000000"/>
            <path d="M339.55 454.16h10.58c12.51 0 18.76 5.82 18.76 17.46s-6.25 17.51-18.76 17.51h-10.58v-34.98Zm20.49 22.99q.84-2.19.84-5.52c0-3.33-.28-4.06-.84-5.52s-1.38-2.54-2.46-3.23-2.18-1.16-3.3-1.4-2.46-.36-4.03-.36h-3.14v21.08h3.14c1.56 0 2.91-.12 4.03-.36s2.22-.72 3.3-1.42c1.08-.71 1.9-1.79 2.46-3.26Z" fill="#000000"/>
            <path d="M372.74 489.14v-34.98h24.6v7.24H380.3v6.13h16.11v7.29H380.3v7.04h17.04v7.29h-24.6Z" fill="#000000"/>
            <path d="M409.64 454.16v27.69h15.4v7.29h-22.97v-34.98z" fill="#000000"/>
            <path d="M436.9 454.16h7.57v20.89c0 2.77.44 4.78 1.33 6.05s2.57 1.91 5.04 1.91 4.14-.69 4.98-2.07 1.26-3.51 1.26-6.37v-20.41h7.57v19.73c0 5.47-1.07 9.48-3.21 12.04s-5.67 3.84-10.6 3.84-8.44-1.18-10.64-3.55c-2.2-2.36-3.3-6.38-3.3-12.04z" fill="#000000"/>
            <path d="M499.33 489.14h-9.2l-12.88-24.12v24.12h-7.3v-34.98h9.2l12.88 24.12v-24.12h7.3z" fill="#000000"/>
            <path d="M512.7 454.16v34.98h-7.57v-34.98z" fill="#000000"/>
            <path d="M526.06 489.14V461.4h-10.27v-7.24h28.19v7.24h-10.31v27.74z" fill="#000000"/>
            <path d="M547.12 489.14v-34.98h24.6v7.24h-17.04v6.13h16.11v7.29h-16.11v7.04h17.04v7.29h-24.6Z" fill="#000000"/>
            <path d="M576.46 454.16h10.58c12.51 0 18.76 5.82 18.76 17.46s-6.25 17.51-18.76 17.51h-10.58v-34.98Zm20.49 22.99q.84-2.19.84-5.52c0-3.33-.28-4.06-.84-5.52s-1.38-2.54-2.46-3.23-2.18-1.16-3.3-1.4-2.46-.36-4.03-.36h-3.14v21.08h3.14c1.56 0 2.91-.12 4.03-.36s2.22-.72 3.3-1.42c1.08-.71 1.89-1.79 2.46-3.26Z" fill="#000000"/>
            <path d="M648.54 489.14h-9.2l-12.88-24.12v24.12h-7.3v-34.98h9.2l12.88 24.12v-24.12h7.3z" fill="#000000"/>
            <path d="m650.75 489.14 12.08-34.98h8.32l12.12 34.98h-8.23l-1.95-6.22H660.7l-1.9 6.22zm16.2-26.25-4.16 13.32h8.27l-4.12-13.32Z" fill="#000000"/>
            <path d="M688.9 489.14V461.4h-10.27v-7.24h28.19v7.24h-10.31v27.74z" fill="#000000"/>
            <path d="M717.52 454.16v34.98h-7.57v-34.98z" fill="#000000"/>
            <path d="M750.02 458.55c3.08 3.31 4.62 7.69 4.62 13.12s-1.54 9.81-4.62 13.12-7.09 4.97-12.01 4.97-8.97-1.66-12.04-4.97-4.6-7.69-4.6-13.12 1.53-9.81 4.6-13.12 7.08-4.97 12.04-4.97 8.93 1.66 12.01 4.97m-18.18 4.8c-1.64 1.98-2.46 4.75-2.46 8.32s.82 6.34 2.46 8.32 3.69 2.97 6.17 2.97 4.54-.99 6.17-2.97c1.64-1.98 2.46-4.75 2.46-8.32s-.82-6.34-2.46-8.32-3.7-2.97-6.17-2.97-4.54.99-6.17 2.97" fill="#000000"/>
            <path d="M787.92 489.14h-9.2l-12.88-24.12v24.12h-7.3v-34.98h9.2l12.88 24.12v-24.12h7.3z" fill="#000000"/>
            <path d="M818.76 464.29h-7.48c-.38-1.32-1.13-2.33-2.23-3.04-1.11-.71-2.47-1.06-4.09-1.06-1.53 0-2.76.3-3.69.89s-1.39 1.42-1.39 2.48c0 .87.33 1.61 1 2.22.66.61 1.57 1.05 2.72 1.3l4.38.96c1.33.29 2.42.55 3.27.8.85.24 1.87.64 3.05 1.18 1.18.55 2.12 1.15 2.81 1.81s1.3 1.54 1.81 2.65c.52 1.11.77 2.37.77 3.79 0 3.47-1.35 6.26-4.05 8.35s-5.83 3.14-9.4 3.14c-4.13 0-7.48-1.05-10.04-3.16-2.57-2.11-4.14-5.06-4.73-8.85h7.52c.83 3.57 3.3 5.35 7.43 5.35 1.5 0 2.79-.31 3.87-.92s1.62-1.58 1.62-2.89c0-1.06-.51-1.91-1.53-2.56-1.02-.64-2.5-1.19-4.45-1.64l-3.89-.87c-6.64-1.48-9.96-4.87-9.96-10.18 0-2.25.69-4.2 2.06-5.84s3.04-2.82 5-3.55 4.05-1.09 6.26-1.09 4.19.35 6.02 1.04 3.43 1.87 4.8 3.52c1.37 1.66 2.22 3.71 2.54 6.15Z" fill="#000000"/>
            <path d="M338.34 306.46h93.58v23.92h-65.68v28.8h-27.9zm0 129.36h93.58V411.9h-65.68v-28.8h-27.9zm27.9-52.72h60.07v-23.92h-60.07zm189.78-52.45a42.46 42.46 0 0 1 0 28.36c-1.65 4.6-4.31 8.77-7.79 12.2-4 3.82-8.75 6.76-13.96 8.62a58 58 0 0 1-20.65 3.27h-29.9v52.72h-27.9V306.46h57.8c7.06-.18 14.09.93 20.75 3.27 5.17 1.87 9.9 4.81 13.86 8.62 3.48 3.47 6.14 7.67 7.79 12.3m-25.21 14.06c.1-2.6-.64-5.17-2.1-7.32a13.63 13.63 0 0 0-5.49-4.37 27 27 0 0 0-7.98-2.1q-4.695-.555-9.42-.54h-22.09v28.8h22.06q4.725.015 9.42-.54c2.75-.29 5.44-.99 7.98-2.07 2.19-.97 4.09-2.48 5.52-4.39 1.49-2.19 2.23-4.82 2.1-7.47m186.98 67.19V306.46h-27.9v129.36h93.58V411.9zm-141.68-52.72h27.9v-28.8h65.68v-23.92h-93.58zm0 76.64h27.9V383.1h-27.9zm27.9-52.72h60.07v-23.92h-60.07z" fill="#ff0000"/>
        </g>
        <path fill="#ff0000" d="M604.01 359.18v23.92h-27.9v-23.92z"/>
        <path fill="#ff0000" d="M366.24 359.18v23.92h-27.9v-23.92z"/>
    </g>
</svg>
