<svg xmlns="http://www.w3.org/2000/svg" width="72.334" height="56.47" viewBox="0 0 72.334 56.47">
  <g id="Dieci_Logo" transform="translate(-152.101 440.323)">
    <path id="path41" d="M218.336-150.884h-1.753v5.176l-.04.174a3.512,3.512,0,0,0-3.107-1.8c-2.748,0-4.342,2.268-4.342,5.234,0,2.5,1.036,5.816,4.581,5.816a3.191,3.191,0,0,0,2.987-1.745h.04v1.454h1.633Zm-7.408,9.073c0-1.338.119-3.955,2.827-3.955,2.549,0,2.828,2.733,2.828,4.478,0,2.733-1.752,3.489-2.868,3.489-1.911,0-2.788-1.745-2.788-4.013" transform="translate(-48.749 -247.566)"/>
    <path id="path45" d="M319.88-148.907h-1.752v-1.977h1.752Zm0,12.329h-1.752v-10.41h1.752" transform="translate(-142.008 -247.566)"/>
    <path id="path49" d="M380.251-118.866a2.68,2.68,0,0,1-2.708,2.035c-1.992,0-3.027-1.28-3.027-3.431h7.647c0-3.664-1.513-6.107-4.5-6.107-3.465,0-5.018,2.618-5.018,5.816,0,3.024,1.752,5.234,4.66,5.234a4.709,4.709,0,0,0,2.828-.7,4.368,4.368,0,0,0,1.872-2.85Zm-5.735-2.792a3.081,3.081,0,0,1,2.907-3.14c2.111,0,2.789,1.512,2.908,3.14" transform="translate(-188.637 -268.535)"/>
    <path id="path53" d="M483.1-122.53a2.36,2.36,0,0,0-2.47-2.268c-2.19,0-2.868,2.093-2.868,3.955,0,1.8.438,4.013,2.828,4.013,1.195,0,2.191-.873,2.509-2.5h1.673a4.1,4.1,0,0,1-4.222,4.013c-2.947,0-4.66-2.21-4.66-5.234,0-3.2,1.553-5.816,4.979-5.816a3.765,3.765,0,0,1,3.9,3.838" transform="translate(-276.948 -268.535)"/>
    <path id="path57" d="M579.516-148.907h-1.753v-1.977h1.753Zm0,12.329h-1.753v-10.41h1.753" transform="translate(-364.083 -247.566)"/>
    <path id="path61" d="M152.1-427.859v6.164h8.923v32.684h6.333v-38.848" transform="translate(0 -10.661)"/>
    <path id="path63" d="M609.15-416.931h6.214v-10.933H609.15Z" transform="translate(-390.929 -10.656)"/>
    <path id="path67" d="M323.622-404.091a15.026,15.026,0,0,1-14.977-15,14.976,14.976,0,0,1,14.977-14.946A14.951,14.951,0,0,1,338.6-419.1,15,15,0,0,1,323.622-404.091Zm0-36.232a21.226,21.226,0,0,0-21.19,21.227,21.189,21.189,0,0,0,21.19,21.227,21.2,21.2,0,0,0,21.23-21.227,21.235,21.235,0,0,0-21.23-21.227" transform="translate(-128.582 0)"/>
  </g>
</svg>
