<?xml version="1.0" encoding="UTF-8" standalone="no"?>
<!-- Created with Inkscape (http://www.inkscape.org/) -->

<svg
   version="1.1"
   id="svg2"
   width="2880"
   height="1440"
   viewBox="0 0 2880 1440"
   sodipodi:docname="Logo (long).ai"
   xmlns:inkscape="http://www.inkscape.org/namespaces/inkscape"
   xmlns:sodipodi="http://sodipodi.sourceforge.net/DTD/sodipodi-0.dtd"
   xmlns="http://www.w3.org/2000/svg"
   xmlns:svg="http://www.w3.org/2000/svg">
  <defs
     id="defs6">
    <clipPath
       clipPathUnits="userSpaceOnUse"
       id="clipPath18">
      <path
         d="M 0,1080 H 2160 V 0 H 0 Z"
         id="path16" />
    </clipPath>
    <clipPath
       clipPathUnits="userSpaceOnUse"
       id="clipPath48">
      <path
         d="M 0,1080 H 2160 V 0 H 0 Z"
         id="path46" />
    </clipPath>
  </defs>
  <sodipodi:namedview
     id="namedview4"
     pagecolor="#ffffff"
     bordercolor="#000000"
     borderopacity="0.25"
     inkscape:showpageshadow="2"
     inkscape:pageopacity="0.0"
     inkscape:pagecheckerboard="0"
     inkscape:deskcolor="#d1d1d1" />
  <g
     id="g8"
     inkscape:groupmode="layer"
     inkscape:label="Logo (long)"
     transform="matrix(1.3333333,0,0,-1.3333333,0,1440)">
    <path
       d="M 1944.543,186.315 H 215.457 v 9.318 h 1729.086 z"
       style="fill:#000000;fill-opacity:1;fill-rule:nonzero;stroke:none"
       id="path10" />
    <g
       id="g12">
      <g
         id="g14"
         clip-path="url(#clipPath18)">
        <g
           id="g20"
           transform="translate(1791.3704,124.1309)">
          <path
             d="m 0,0 h -15.402 c -0.79,2.614 -2.325,4.623 -4.603,6.026 -2.278,1.402 -5.09,2.105 -8.431,2.105 -3.159,0 -5.696,-0.591 -7.609,-1.77 -1.914,-1.181 -2.871,-2.822 -2.871,-4.926 0,-1.722 0.684,-3.19 2.051,-4.401 1.367,-1.212 3.235,-2.073 5.604,-2.583 l 9.024,-1.913 c 2.733,-0.573 4.98,-1.1 6.744,-1.578 1.762,-0.479 3.857,-1.26 6.288,-2.344 2.43,-1.085 4.359,-2.28 5.787,-3.587 1.428,-1.307 2.673,-3.06 3.737,-5.26 1.063,-2.201 1.595,-4.705 1.595,-7.51 0,-6.887 -2.779,-12.404 -8.339,-16.548 -5.559,-4.147 -12.016,-6.218 -19.367,-6.218 -8.508,0 -15.402,2.088 -20.688,6.266 -5.287,4.176 -8.538,10.027 -9.752,17.553 h 15.493 c 1.7,-7.08 6.804,-10.619 15.311,-10.619 3.099,0 5.756,0.606 7.975,1.818 2.218,1.211 3.327,3.124 3.327,5.739 0,2.104 -1.049,3.794 -3.145,5.07 -2.096,1.275 -5.149,2.359 -9.159,3.252 l -8.02,1.722 c -13.671,2.933 -20.507,9.662 -20.507,20.184 0,4.463 1.413,8.322 4.238,11.575 2.825,3.252 6.258,5.595 10.299,7.03 4.04,1.436 8.339,2.152 12.897,2.152 4.495,0 8.627,-0.685 12.394,-2.056 3.767,-1.372 7.064,-3.7 9.889,-6.983 C -2.415,8.911 -0.669,4.846 0,0 M -63.523,-49.264 H -82.48 l -26.522,47.828 v -47.828 h -15.037 v 69.352 h 18.956 l 26.521,-47.829 v 47.829 h 15.039 z M -179.041,1.865 c -3.372,-3.922 -5.059,-9.423 -5.059,-16.501 0,-7.079 1.687,-12.579 5.059,-16.501 3.372,-3.922 7.61,-5.883 12.714,-5.883 5.103,0 9.342,1.961 12.714,5.883 3.372,3.922 5.057,9.422 5.057,16.501 0,7.078 -1.685,12.579 -5.057,16.501 -3.372,3.922 -7.611,5.883 -12.714,5.883 -5.104,0 -9.342,-1.961 -12.714,-5.883 m 37.458,9.518 c 6.349,-6.57 9.523,-15.242 9.523,-26.019 0,-10.778 -3.174,-19.451 -9.523,-26.018 -6.35,-6.57 -14.598,-9.853 -24.744,-9.853 -10.208,0 -18.472,3.283 -24.79,9.853 -6.32,6.567 -9.479,15.24 -9.479,26.018 0,10.777 3.159,19.449 9.479,26.019 6.318,6.567 14.582,9.852 24.79,9.852 10.146,0 18.394,-3.285 24.744,-9.852 m -66.94,-60.647 h -15.584 v 69.352 h 15.584 z m -58.966,0 V 5.739 h -21.144 v 14.349 h 58.055 V 5.739 h -21.235 v -55.003 z m -45.204,52.037 -8.568,-26.401 h 17.043 z m -33.358,-52.037 24.881,69.352 h 17.135 l 24.972,-69.352 h -16.953 l -4.009,12.34 h -25.519 l -3.919,-12.34 z m -4.556,0 h -18.957 l -26.522,47.828 v -47.828 h -15.037 v 69.352 h 18.956 l 26.521,-47.829 v 47.829 h 15.039 z m -106.268,23.771 c 1.153,2.901 1.731,6.553 1.731,10.953 0,4.4 -0.578,8.05 -1.731,10.952 -1.155,2.901 -2.842,5.037 -5.059,6.409 -2.218,1.371 -4.481,2.296 -6.79,2.775 -2.309,0.478 -5.073,0.717 -8.294,0.717 h -6.47 v -41.802 h 6.47 c 3.221,0 5.985,0.239 8.294,0.718 2.309,0.478 4.572,1.417 6.79,2.821 2.217,1.402 3.904,3.554 5.059,6.457 m -42.197,45.581 h 21.781 c 25.762,0 38.644,-11.543 38.644,-34.628 0,-23.149 -12.882,-34.724 -38.644,-34.724 h -21.781 z m -60.424,-69.352 v 69.352 h 50.673 V 5.739 h -35.089 V -6.409 h 33.175 v -14.445 h -33.175 v -13.965 h 35.089 v -14.445 z m -43.382,0 V 5.739 h -21.143 v 14.349 h 58.054 V 5.739 h -21.235 v -55.003 z m -27.523,0 h -15.584 v 69.352 h 15.584 z m -27.523,0 h -18.957 l -26.521,47.828 v -47.828 h -15.038 v 69.352 h 18.956 l 26.521,-47.829 v 47.829 h 15.039 z M -786.52,20.088 h 15.585 v -41.42 c 0,-5.485 0.911,-9.486 2.734,-12.005 1.823,-2.519 5.286,-3.778 10.39,-3.778 5.103,0 8.521,1.37 10.253,4.113 1.732,2.741 2.598,6.95 2.598,12.627 v 40.463 h 15.584 v -39.124 c 0,-10.842 -2.203,-18.797 -6.607,-23.866 -4.407,-5.071 -11.682,-7.605 -21.828,-7.605 -10.087,0 -17.394,2.343 -21.919,7.03 -4.527,4.688 -6.79,12.642 -6.79,23.867 z m -56.141,0 v -54.907 h 31.716 v -14.445 h -47.301 v 69.352 z m -76.009,-69.352 v 69.352 h 50.673 V 5.739 h -35.089 V -6.409 h 33.175 v -14.445 h -33.175 v -13.965 h 35.089 v -14.445 z m -26.157,23.771 c 1.153,2.901 1.731,6.553 1.731,10.953 0,4.4 -0.578,8.05 -1.731,10.952 -1.155,2.901 -2.841,5.037 -5.058,6.409 -2.219,1.371 -4.482,2.296 -6.79,2.775 -2.31,0.478 -5.074,0.717 -8.294,0.717 h -6.471 v -41.802 h 6.471 c 3.22,0 5.984,0.239 8.294,0.718 2.308,0.478 4.571,1.417 6.79,2.821 2.217,1.402 3.903,3.554 5.058,6.457 m -42.197,45.581 h 21.782 c 25.76,0 38.643,-11.543 38.643,-34.628 0,-23.149 -12.883,-34.724 -38.643,-34.724 h -21.782 z m -55.002,-18.223 c -3.372,-3.922 -5.058,-9.423 -5.058,-16.501 0,-7.079 1.686,-12.579 5.058,-16.501 3.372,-3.922 7.61,-5.883 12.714,-5.883 5.104,0 9.342,1.961 12.714,5.883 3.372,3.922 5.058,9.422 5.058,16.501 0,7.078 -1.686,12.579 -5.058,16.501 -3.372,3.922 -7.61,5.883 -12.714,5.883 -5.104,0 -9.342,-1.961 -12.714,-5.883 m 37.458,9.518 c 6.348,-6.57 9.524,-15.242 9.524,-26.019 0,-10.778 -3.176,-19.451 -9.524,-26.018 -6.35,-6.57 -14.598,-9.853 -24.744,-9.853 -10.208,0 -18.472,3.283 -24.79,9.853 -6.32,6.567 -9.479,15.24 -9.479,26.018 0,10.777 3.159,19.449 9.479,26.019 6.318,6.567 14.582,9.852 24.79,9.852 10.146,0 18.394,-3.285 24.744,-9.852 m -96.834,-60.647 h -14.673 l -14.856,55.482 v -55.482 h -15.129 v 69.352 h 24.607 l 12.669,-49.742 12.942,49.742 h 24.334 v -69.352 h -15.13 V 6.313 Z"
             style="fill:#231f20;fill-opacity:1;fill-rule:nonzero;stroke:none"
             id="path22" />
        </g>
        <path
           d="m 511.446,103.532 h 32.722 v 13.03 h -32.722 z m -15.198,-28.72 h 15.198 v 28.72 h -15.198 z m 0,41.75 h 15.198 v 15.69 h 35.78 v 13.03 h -50.978 z m 77.185,-28.72 v 57.44 h -15.198 v -70.47 h 50.978 v 13.03 z M 471.57,124.447 c 0.054,1.417 -0.346,2.815 -1.143,3.989 -0.773,1.04 -1.804,1.861 -2.992,2.38 -1.382,0.603 -2.848,0.988 -4.348,1.143 -1.703,0.201 -3.417,0.299 -5.132,0.293 h -12.033 v -15.69 h 12.019 c 1.716,-0.006 3.429,0.092 5.133,0.292 1.497,0.158 2.963,0.539 4.348,1.131 1.19,0.526 2.225,1.35 3.005,2.393 0.813,1.196 1.215,2.624 1.143,4.069 m 13.735,7.658 c 1.773,-4.997 1.773,-10.452 0,-15.45 -0.901,-2.504 -2.35,-4.776 -4.241,-6.648 -2.178,-2.082 -4.769,-3.681 -7.606,-4.694 -3.61,-1.27 -7.422,-1.874 -11.248,-1.781 h -16.288 v -28.72 h -15.198 v 70.47 h 31.486 c 3.844,0.099 7.674,-0.505 11.301,-1.782 2.818,-1.019 5.391,-2.618 7.553,-4.693 1.895,-1.891 3.344,-4.18 4.241,-6.702 M 381.913,103.532 h 32.722 v 13.03 h -32.722 z m -15.197,-28.72 h 50.978 v 13.03 h -35.781 v 15.69 h -15.197 z m 0,70.47 h 50.978 v -13.03 h -35.781 v -15.69 h -15.197 z"
           style="fill:#ec2024;fill-opacity:1;fill-rule:nonzero;stroke:none"
           id="path24" />
        <path
           d="m 366.716,101.828 h 15.198 v 15.198 h -15.198 z"
           style="fill:#ec2024;fill-opacity:1;fill-rule:nonzero;stroke:none"
           id="path26" />
        <path
           d="m 496.248,103.532 h 15.198 v 13.03 h -15.198 z"
           style="fill:#ec2024;fill-opacity:1;fill-rule:nonzero;stroke:none"
           id="path28" />
      </g>
    </g>
    <path
       d="m 215.457,615.762 h 404.288 v 9.405 H 215.457 Z"
       style="fill:#000000;fill-opacity:1;fill-rule:nonzero;stroke:none"
       id="path30" />
    <path
       d="m 362.209,540.824 h 257.536 v 9.405 H 362.209 Z"
       style="fill:#000000;fill-opacity:1;fill-rule:nonzero;stroke:none"
       id="path32" />
    <path
       d="m 362.209,690.699 h 257.536 v 9.405 H 362.209 Z"
       style="fill:#000000;fill-opacity:1;fill-rule:nonzero;stroke:none"
       id="path34" />
    <path
       d="m 1944.543,615.762 h -404.288 v 9.405 h 404.288 z"
       style="fill:#000000;fill-opacity:1;fill-rule:nonzero;stroke:none"
       id="path36" />
    <path
       d="m 1797.791,540.824 h -257.536 v 9.405 h 257.536 z"
       style="fill:#000000;fill-opacity:1;fill-rule:nonzero;stroke:none"
       id="path38" />
    <path
       d="m 1797.791,690.699 h -257.536 v 9.405 h 257.536 z"
       style="fill:#000000;fill-opacity:1;fill-rule:nonzero;stroke:none"
       id="path40" />
    <g
       id="g42">
      <g
         id="g44"
         clip-path="url(#clipPath48)">
        <g
           id="g50"
           transform="translate(1430.3114,526.3414)">
          <path
             d="M 0,0 C 0,0 3.593,34.133 -1.797,48.505 -16.168,91.62 -30.54,138.328 -28.744,183.24 -14.372,129.346 30.54,111.381 10.779,37.726 c 7.186,14.372 8.982,30.54 14.372,44.912 10.778,39.522 41.318,73.655 32.336,120.363 14.372,-41.319 14.372,-73.655 0,-116.771 C 48.505,53.894 16.168,30.54 0,0 m 8.982,208.39 c -7.186,14.372 -19.761,28.744 -32.336,39.523 -32.337,23.354 -64.673,53.894 -66.469,93.416 17.964,-43.115 73.655,-50.301 86.23,-95.213 0,0 -7.186,26.947 -8.982,32.337 -8.983,30.54 -7.186,66.469 -37.726,86.23 59.283,-12.575 62.876,-77.248 59.283,-125.753 0,-10.779 -1.796,-19.761 0,-30.54 m -35.929,86.231 c -16.168,14.372 -35.929,26.947 -50.301,44.912 -16.168,21.557 -30.54,46.708 -52.098,66.469 28.744,-12.575 61.08,-23.354 80.841,-53.894 10.779,-17.965 12.576,-39.522 21.558,-57.487 m -12.575,-79.045 c -7.186,14.372 -10.779,32.337 -14.372,48.505 3.593,-7.186 7.186,-14.372 12.575,-19.761 34.133,-28.744 53.894,-44.912 62.877,-89.824 l -3.593,39.523 c -3.593,39.522 17.964,82.637 -5.39,116.77 23.354,-25.151 35.93,-57.487 35.93,-89.823 0,-43.116 -25.151,-73.656 -26.947,-114.974 -7.186,43.115 -43.116,73.655 -61.08,109.584 M -64.673,-98.806 c 0,0 10.779,19.761 14.372,32.337 12.575,48.504 5.389,107.788 26.947,154.496 -3.593,-26.947 7.186,-50.301 8.982,-75.452 3.593,-34.133 -8.982,-57.487 -17.964,-73.655 0,0 12.575,16.168 17.964,25.151 C 10.779,3.593 62.876,30.54 66.469,79.045 73.655,-26.947 0,-55.691 -64.673,-98.806 m -242.523,-84.434 c 86.23,0 131.142,-75.451 215.576,-25.15 -41.319,-50.301 -107.788,-53.894 -161.682,-19.761 -21.558,14.371 -41.319,34.132 -68.266,34.132 -41.319,0 -86.23,-43.115 -123.956,-82.637 -7.186,5.389 -12.575,10.779 -17.965,16.168 39.522,37.726 97.009,77.248 156.293,77.248 m 71.859,-3.593 c -5.39,1.797 -12.576,1.797 -19.762,3.593 25.151,3.593 48.505,12.575 66.47,28.744 26.947,25.15 50.301,50.301 79.044,70.062 -30.54,-61.08 -41.318,-86.231 -91.619,-97.009 0,0 14.371,1.796 21.557,3.593 53.894,10.778 118.567,-3.593 158.089,41.318 -16.168,-28.743 -46.708,-52.097 -75.451,-62.876 -46.709,-14.372 -95.213,1.796 -138.328,12.575 m 89.823,21.558 c 34.133,28.743 39.522,70.062 53.894,105.992 8.982,23.354 25.151,43.115 41.319,62.876 -21.558,-61.08 -8.982,-104.195 -61.08,-147.31 8.982,3.592 17.965,10.778 25.151,16.168 41.318,34.133 102.398,39.522 127.549,95.213 -7.186,-41.319 -39.523,-77.249 -73.655,-100.603 -34.133,-21.557 -77.249,-19.761 -113.178,-32.336 M -700.623,0 c 0,0 -3.593,34.133 1.797,48.505 14.371,43.115 28.743,89.823 26.947,134.735 -14.372,-53.894 -59.284,-71.859 -39.523,-145.514 -7.185,14.372 -8.982,30.54 -14.371,44.912 -10.779,39.522 -41.319,73.655 -32.337,120.363 -14.372,-41.319 -14.372,-73.655 0,-116.771 8.983,-32.336 41.319,-55.69 57.487,-86.23 m -8.982,208.39 c 7.186,14.372 19.761,28.744 32.336,39.523 32.337,23.354 64.673,53.894 66.47,93.416 -17.965,-43.115 -73.656,-50.301 -86.231,-95.213 0,0 7.186,26.947 8.983,32.337 8.982,30.54 7.185,66.469 37.725,86.23 -59.283,-12.575 -62.876,-77.248 -59.283,-125.753 0,-10.779 1.796,-19.761 0,-30.54 m 35.929,86.231 c 16.168,14.372 35.93,26.947 50.301,44.912 16.169,21.557 30.54,46.708 52.098,66.469 -28.744,-12.575 -61.08,-23.354 -80.841,-53.894 -10.779,-17.965 -12.575,-39.522 -21.558,-57.487 m 12.576,-79.045 c 7.185,14.372 10.778,32.337 14.371,48.505 -3.593,-7.186 -7.186,-14.372 -12.575,-19.761 -34.133,-28.744 -53.894,-44.912 -62.876,-89.824 l 3.593,39.523 c 3.592,39.522 -17.965,82.637 5.389,116.77 -23.354,-25.151 -35.929,-57.487 -35.929,-89.823 0,-43.116 25.15,-73.656 26.947,-114.974 7.185,43.115 43.115,73.655 61.08,109.584 m 25.15,-314.382 c 0,0 -10.779,19.761 -14.372,32.337 -12.575,48.504 -5.389,107.788 -26.947,154.496 3.593,-26.947 -7.186,-50.301 -8.982,-75.452 -3.593,-34.133 8.982,-57.487 17.965,-73.655 0,0 -12.576,16.168 -17.965,25.151 -25.151,39.522 -77.248,66.469 -80.841,114.974 -7.186,-105.992 66.469,-134.736 131.142,-177.851 m 242.523,-84.434 c -86.23,0 -131.142,-75.451 -215.576,-25.15 41.319,-50.301 107.788,-53.894 161.682,-19.761 21.558,14.371 41.319,34.132 68.266,34.132 41.319,0 86.231,-43.115 123.956,-82.637 7.186,5.389 12.576,10.779 17.965,16.168 -39.522,37.726 -97.009,77.248 -156.293,77.248 m -71.858,-3.593 c 5.389,1.797 12.575,1.797 19.761,3.593 -25.151,3.593 -48.505,12.575 -66.47,28.744 -26.947,25.15 -50.301,50.301 -79.044,70.062 30.54,-61.08 41.319,-86.231 91.62,-97.009 0,0 -14.372,1.796 -21.558,3.593 -53.894,10.778 -118.567,-3.593 -158.089,41.318 16.168,-28.743 46.708,-52.097 75.452,-62.876 46.708,-14.372 95.212,1.796 138.328,12.575 m -89.824,21.558 c -34.133,28.743 -39.522,70.062 -53.894,105.992 -8.982,23.354 -25.15,43.115 -41.319,62.876 21.558,-61.08 8.983,-104.195 61.08,-147.31 -8.982,3.592 -17.964,10.778 -25.15,16.168 -41.319,34.133 -102.399,39.522 -127.55,95.213 7.186,-41.319 39.523,-77.249 73.656,-100.603 34.133,-21.557 77.248,-19.761 113.177,-32.336"
             style="fill:#000000;fill-opacity:1;fill-rule:nonzero;stroke:none"
             id="path52" />
        </g>
        <g
           id="g54"
           transform="translate(1113.609,290.8119)">
          <path
             d="M 0,0 H -23.542 V -23.51 H -43.676 V 0 h -23.542 v 20.165 h 23.542 v 23.511 h 20.134 V 20.165 l 23.542,0 z m -33.609,60.464 c -16.789,0 -33.609,-2.835 -50.398,-8.378 0,-9.461 -0.031,-19.05 0.669,-28.48 0.542,-7.614 1.53,-15.132 3.377,-22.364 5.32,-21.057 17.681,-39.853 46.352,-52.468 28.448,12.52 40.841,31.124 46.224,51.991 1.88,7.231 2.931,14.781 3.473,22.395 0.732,9.589 0.701,19.337 0.701,28.926 C 0,57.629 -16.82,60.464 -33.609,60.464"
             style="fill:#ec2024;fill-opacity:1;fill-rule:nonzero;stroke:none"
             id="path56" />
        </g>
        <g
           id="g58"
           transform="translate(1113.609,310.9774)">
          <path
             d="m 0,0 v -20.165 h -23.542 v -23.511 h -20.134 v 23.511 H -67.218 V 0 h 23.542 v 23.51 h 20.134 V 0 Z"
             style="fill:#ffffff;fill-opacity:1;fill-rule:nonzero;stroke:none"
             id="path60" />
        </g>
        <g
           id="g62"
           transform="translate(1320.3334,503.8293)">
          <path
             d="m 0,0 c -19.559,-29.074 -44.249,-54.423 -72.77,-74.738 -0.033,-0.016 -0.057,-0.033 -0.081,-0.057 -42.664,-30.359 -93.866,-49.454 -149.241,-52.902 -2.838,-0.179 -5.677,-0.309 -8.531,-0.399 -1.196,-0.049 -2.391,-0.081 -3.595,-0.106 -0.26,-0.008 -0.512,-0.008 -0.772,-0.016 -1.781,-0.041 -3.562,-0.057 -5.343,-0.057 -0.968,0 -1.928,0.008 -2.887,0.016 -0.545,0.009 -1.09,0.017 -1.635,0.025 -0.163,0 -0.325,0.008 -0.488,0.008 -0.512,0.008 -1.033,0.016 -1.545,0.032 -3.749,0.082 -7.482,0.236 -11.191,0.464 -91.816,5.571 -172.207,54.139 -221.262,125.77 -0.277,0.39 -0.545,0.789 -0.805,1.187 -0.317,0.456 -0.626,0.911 -0.935,1.375 -0.488,0.724 -0.968,1.456 -1.448,2.187 -29.903,45.551 -47.307,99.99 -47.307,158.439 0,159.626 129.869,289.495 289.503,289.495 159.634,0 289.502,-129.869 289.502,-289.495 C 49.169,101.592 31.042,46.112 0,0 m 33.043,276.71 c -14.94,35.336 -36.337,67.061 -63.581,94.305 -27.252,27.253 -58.977,48.641 -94.305,63.589 -36.58,15.468 -75.438,23.316 -115.49,23.316 -40.053,0 -78.911,-7.848 -115.491,-23.316 -35.328,-14.948 -67.053,-36.336 -94.305,-63.589 -27.244,-27.244 -48.633,-58.969 -63.58,-94.305 -15.468,-36.58 -23.316,-75.429 -23.316,-115.482 0,-40.053 7.848,-78.91 23.316,-115.491 14.947,-35.327 36.336,-67.061 63.58,-94.305 27.252,-27.244 58.977,-48.64 94.305,-63.58 27.049,-11.442 55.342,-18.713 84.441,-21.714 8.108,-0.846 16.273,-1.35 24.495,-1.529 0.512,-0.008 1.024,-0.024 1.545,-0.024 1.667,-0.033 3.334,-0.049 5.01,-0.049 1.781,0 3.562,0.016 5.343,0.049 0.26,0.008 0.512,0.008 0.772,0.016 8.661,0.171 17.258,0.708 25.789,1.627 28.797,3.057 56.797,10.295 83.586,21.624 35.328,14.94 67.053,36.336 94.305,63.58 27.244,27.244 48.641,58.978 63.581,94.305 15.468,36.581 23.316,75.438 23.316,115.491 0,40.053 -7.848,78.902 -23.316,115.482"
             style="fill:#000000;fill-opacity:1;fill-rule:nonzero;stroke:none"
             id="path64" />
        </g>
        <g
           id="g66"
           transform="translate(1315.4781,502.8128)">
          <path
             d="m 0,0 c -0.032,-0.049 -0.065,-0.098 -0.098,-0.146 -0.219,-0.326 -0.455,-0.667 -0.683,-1.017 -2.813,1.684 -5.603,3.424 -8.311,5.115 -1.261,0.781 -2.521,1.562 -3.79,2.351 l -1.936,1.195 -0.975,-2.065 c -2.261,-4.807 -4.425,-7.442 -7.629,-9.133 -0.569,0.878 -1.138,1.968 -1.724,3.106 -1.895,3.66 -4.042,7.808 -8.393,8.743 -0.561,0.114 -1.13,0.179 -1.716,0.179 -2.521,0 -5.334,-1.106 -8.523,-3.335 l -6.27,9.255 -0.154,0.228 23.169,20.551 5.409,-6.962 0.252,-0.325 7.14,-9.206 L 0.073,0.098 C 0.049,0.065 0.024,0.033 0,0 m -110.578,64.776 c -0.318,-1.009 -0.944,-2.107 -1.586,-3.253 -0.659,-1.171 -1.383,-2.448 -1.871,-3.822 -6.034,1.789 -11.011,4.472 -16.753,7.725 l -1.708,0.968 -3.48,-5.676 c -2.7,-4.408 -5.368,-8.767 -8.043,-13.134 -3.083,2.691 -5.4,6.725 -7.889,13.565 l -0.854,2.35 -19.827,-12.28 c -9.344,2.505 -17.355,9.507 -25.113,16.273 -5.962,5.205 -11.589,10.125 -17.485,12.654 l -0.895,0.383 -0.854,-0.456 c -6.66,-3.497 -12.744,-7.067 -18.632,-10.515 -5.351,-3.139 -10.881,-6.376 -16.769,-9.515 -5.969,7.002 -7.352,10.312 -10.475,20.616 l -0.577,1.911 -1.919,-0.545 c -11.817,-3.342 -37.101,-19.421 -47.364,-27.504 l -10.735,7.498 -0.895,-2.513 c -2.196,-6.14 -3.92,-7.197 -6.774,-8.954 -0.196,-0.13 -0.407,-0.252 -0.618,-0.39 -1.554,2.334 -3.099,4.05 -4.612,5.709 -1.838,2.033 -3.578,3.952 -5.335,6.977 l -1.032,1.781 -1.765,-1.057 c -5.839,-3.497 -10.849,-6.343 -17.095,-8.181 l -7.823,4.774 -0.017,0.008 7.214,6.685 9.344,11.239 9.646,11.613 17.826,21.446 24.097,-37.955 1.106,-1.74 0.626,-0.992 1.781,1.553 c 12.215,10.597 21.283,19.957 30.058,29.009 3.497,3.611 7.043,7.262 10.824,11.028 4.904,4.594 9.808,9.197 14.704,13.809 0.325,0.309 0.643,0.642 0.944,0.984 1.016,0.911 2.057,1.821 3.122,2.748 0.187,0.171 0.383,0.334 0.578,0.505 0.089,0.073 0.179,0.154 0.276,0.244 0.301,-0.252 0.602,-0.505 0.895,-0.749 0.195,-0.17 0.382,-0.333 0.577,-0.496 0.22,-0.187 0.44,-0.374 0.659,-0.553 1.464,-1.236 2.863,-2.415 4.164,-3.594 11.776,-10.621 23.527,-21.259 35.279,-31.888 l 15.525,-14.045 c 2.497,-2.261 5.002,-4.522 7.49,-6.782 0.114,-0.098 0.22,-0.204 0.334,-0.31 1.659,-1.496 3.318,-2.992 4.96,-4.497 l 2.326,-2.122 0.976,2.992 c 2.895,8.922 5.799,17.835 8.702,26.748 1.773,5.457 3.554,10.922 5.335,16.387 l 19.079,-22.478 10.54,-12.418 9.856,-11.622 c -0.016,-0.049 -0.032,-0.097 -0.048,-0.146 m -314.291,-50.52 -6.36,-9.49 c -4.058,2.887 -7.522,3.976 -10.556,3.326 -4.481,-0.96 -6.693,-5.286 -8.645,-9.1 -0.618,-1.212 -1.22,-2.375 -1.821,-3.302 -3.351,1.773 -5.604,4.538 -7.954,9.604 l -0.976,2.09 -1.952,-1.22 c -1.374,-0.862 -2.74,-1.724 -4.107,-2.578 -2.106,-1.333 -4.261,-2.683 -6.416,-4.017 l -1.025,1.456 26.618,34.01 23.275,-20.657 z M 4.083,1.561 -0.496,7.466 -0.504,7.913 -1.049,8.173 -1.22,8.255 c -3.326,4.35 -6.66,8.693 -10.011,13.036 l -6.945,8.962 -0.317,0.407 -7.987,10.287 -26.487,-23.503 -53.911,49.463 -44.77,52.747 -1.114,-3.497 c -0.138,-0.431 -0.219,-0.699 -0.285,-0.902 l -0.097,-0.301 c -2.017,-6.214 -4.042,-12.427 -6.067,-18.64 -2.578,-7.921 -5.156,-15.834 -7.726,-23.755 -3.481,3.155 -6.969,6.319 -10.458,9.474 l -15.525,14.053 c -11.752,10.629 -23.512,21.267 -35.296,31.888 -1.545,1.399 -3.18,2.781 -4.92,4.237 -0.895,0.756 -1.83,1.545 -2.798,2.383 l -1.358,1.155 -1.74,-1.562 c -0.61,-0.545 -0.878,-0.789 -1.139,-1.016 -12.386,-10.711 -21.551,-20.169 -30.423,-29.31 -8.279,-8.547 -16.827,-17.363 -28.025,-27.22 l -26.285,41.403 -40.215,-48.38 -8.743,-8.109 c -15.85,-14.549 -31.66,-29.057 -47.535,-43.606 l -0.179,-0.163 -0.252,0.244 -0.447,-0.439 -26.325,23.348 -29.074,-37.133 c 0.48,-0.732 0.96,-1.464 1.448,-2.188 0.252,-0.382 0.512,-0.756 0.764,-1.13 l 0.171,-0.244 0.805,-1.187 0.285,-0.415 c 49.08,-71.404 129.34,-119.793 220.978,-125.355 3.708,-0.228 7.441,-0.383 11.19,-0.464 0.512,-0.016 1.033,-0.024 1.545,-0.032 0.163,0 0.326,-0.009 0.488,-0.009 0.545,-0.008 1.09,-0.016 1.635,-0.024 0.959,-0.008 1.919,-0.016 2.887,-0.016 1.781,0 3.562,0.016 5.343,0.057 0.26,0.008 0.512,0.008 0.773,0.016 1.203,0.024 2.399,0.057 3.594,0.106 2.855,0.089 5.693,0.219 8.531,0.398 55.375,3.448 106.577,22.544 149.241,52.902 0.024,0.025 0.048,0.041 0.081,0.057 28.521,20.316 53.211,45.665 72.77,74.739 z"
             style="fill:#000000;fill-opacity:1;fill-rule:nonzero;stroke:none"
             id="path68" />
        </g>
        <g
           id="g70"
           transform="translate(1315.5514,502.9104)">
          <path
             d="m 0,0 c -0.024,-0.033 -0.049,-0.065 -0.073,-0.098 -0.033,-0.048 -0.065,-0.097 -0.098,-0.146 -0.219,-0.325 -0.455,-0.667 -0.683,-1.017 -2.814,1.684 -5.603,3.424 -8.311,5.116 -1.261,0.781 -2.522,1.561 -3.79,2.35 l -1.936,1.196 -0.976,-2.066 c -2.26,-4.806 -4.424,-7.441 -7.628,-9.133 -0.569,0.878 -1.139,1.968 -1.724,3.107 -1.895,3.659 -4.042,7.807 -8.393,8.742 -0.561,0.114 -1.13,0.179 -1.716,0.179 -2.521,0 -5.335,-1.106 -8.523,-3.334 l -6.27,9.255 -0.155,0.227 23.17,20.551 5.408,-6.961 0.252,-0.325 7.141,-9.206 z"
             style="fill:#ffffff;fill-opacity:1;fill-rule:nonzero;stroke:none"
             id="path72" />
        </g>
        <g
           id="g74"
           transform="translate(1204.9486,567.735)">
          <path
             d="m 0,0 c -0.016,-0.049 -0.033,-0.098 -0.049,-0.146 -0.317,-1.009 -0.943,-2.107 -1.586,-3.253 -0.658,-1.171 -1.382,-2.448 -1.87,-3.823 -6.035,1.789 -11.012,4.473 -16.753,7.726 l -1.708,0.968 -3.481,-5.677 c -2.7,-4.407 -5.367,-8.766 -8.043,-13.134 -3.082,2.692 -5.4,6.726 -7.888,13.566 l -0.854,2.35 -19.828,-12.28 c -9.344,2.504 -17.354,9.507 -25.113,16.273 -5.961,5.205 -11.589,10.125 -17.485,12.654 l -0.894,0.382 -0.854,-0.455 c -6.661,-3.497 -12.744,-7.067 -18.632,-10.515 -5.351,-3.14 -10.881,-6.376 -16.769,-9.516 -5.97,7.003 -7.352,10.313 -10.475,20.617 l -0.577,1.911 -1.92,-0.545 c -11.816,-3.343 -37.101,-19.421 -47.364,-27.504 l -10.735,7.498 -0.894,-2.513 c -2.196,-6.14 -3.92,-7.198 -6.775,-8.954 -0.195,-0.13 -0.406,-0.252 -0.618,-0.391 -1.553,2.334 -3.098,4.05 -4.611,5.709 -1.838,2.034 -3.578,3.953 -5.335,6.978 l -1.033,1.781 -1.765,-1.057 c -5.839,-3.497 -10.848,-6.343 -17.094,-8.181 l -7.824,4.773 -0.016,0.009 7.214,6.685 9.344,11.239 9.645,11.613 17.827,21.446 24.096,-37.955 1.106,-1.74 0.627,-0.993 1.781,1.554 c 12.215,10.596 21.283,19.957 30.058,29.009 3.497,3.61 7.042,7.262 10.824,11.027 4.904,4.595 9.808,9.198 14.704,13.809 0.325,0.309 0.642,0.643 0.943,0.984 1.017,0.911 2.058,1.822 3.123,2.749 0.187,0.171 0.382,0.334 0.577,0.504 0.09,0.074 0.179,0.155 0.277,0.244 0.301,-0.252 0.602,-0.504 0.895,-0.748 0.195,-0.171 0.382,-0.333 0.577,-0.496 0.22,-0.187 0.439,-0.374 0.659,-0.553 1.463,-1.236 2.862,-2.415 4.164,-3.594 11.775,-10.622 23.527,-21.259 35.278,-31.888 l 15.526,-14.045 c 2.496,-2.261 5.001,-4.522 7.49,-6.783 0.113,-0.097 0.219,-0.203 0.333,-0.309 1.659,-1.496 3.318,-2.992 4.961,-4.497 l 2.326,-2.123 0.976,2.993 c 2.895,8.922 5.798,17.835 8.702,26.748 1.773,5.457 3.554,10.922 5.335,16.387 L -20.396,24.04 -9.857,11.621 Z"
             style="fill:#ffffff;fill-opacity:1;fill-rule:nonzero;stroke:none"
             id="path76" />
        </g>
        <g
           id="g78"
           transform="translate(890.6903,517.1912)">
          <path
             d="m 0,0 -0.081,-0.122 -6.36,-9.491 c -4.058,2.887 -7.523,3.977 -10.556,3.327 -4.481,-0.96 -6.693,-5.287 -8.645,-9.101 -0.618,-1.212 -1.22,-2.375 -1.822,-3.302 -3.35,1.773 -5.603,4.538 -7.953,9.605 l -0.976,2.09 -1.952,-1.22 c -1.374,-0.862 -2.741,-1.724 -4.107,-2.578 -2.106,-1.334 -4.261,-2.684 -6.417,-4.017 l -1.024,1.455 26.618,34.011 z"
             style="fill:#ffffff;fill-opacity:1;fill-rule:nonzero;stroke:none"
             id="path80" />
        </g>
        <g
           id="g82"
           transform="translate(1118.9794,434.2472)">
          <path
             d="m 0,0 c -0.781,0.016 -1.57,0 -2.383,0 0,-2.041 0.049,-3.944 -0.016,-5.855 -0.081,-2.896 0,-5.823 -0.415,-8.678 -1.293,-9.182 -5.359,-16.867 -12.15,-22.836 -8.84,-7.75 -19.055,-10.426 -30.343,-8.1 -8.043,1.659 -14.736,5.912 -20.03,12.467 -4.814,5.953 -7.653,12.833 -8.206,20.624 -0.26,3.701 -0.146,7.442 -0.203,11.174 v 1.115 h -5.441 c 0,-3.774 -0.065,-7.474 0.033,-11.183 0.073,-1.992 0.293,-4.033 0.707,-5.993 3.774,-17.144 13.834,-28.139 29.944,-33.116 1.472,-0.447 3.009,-0.7 4.514,-1.049 v -14.403 c 1.667,-0.033 3.334,-0.049 5.01,-0.049 1.781,0 3.562,0.016 5.343,0.049 0.26,0.008 0.512,0.008 0.772,0.016 v 14.338 c 0.13,0.049 0.212,0.073 0.293,0.073 5.351,0.781 10.402,2.481 15.062,5.335 11.458,7.035 18.444,17.347 20.551,31.131 0.187,1.285 0.309,2.595 0.447,3.888 V -0.114 C 2.318,-0.065 1.147,-0.024 0,0 m -36.773,86.705 c 1.581,-0.27 3.184,-0.442 4.74,-0.824 14.018,-3.444 23.292,-15.574 23.445,-30.63 0.029,-2.819 0.005,-5.639 0.002,-8.458 0,-0.14 -0.03,-0.279 -0.056,-0.502 h -24.66 v -5.778 h 24.678 v -5.754 h -24.7 v -5.776 h 24.678 v -5.75 h -24.663 v -5.748 h 24.66 V 11.71 H -33.321 V 5.931 h 24.672 c 0.028,-0.273 0.064,-0.463 0.064,-0.654 -0.007,-4.898 0.056,-9.798 -0.04,-14.695 -0.28,-14.213 -10.28,-26.82 -23.587,-29.83 -16.132,-3.649 -31.696,6.219 -36.011,22.835 -0.674,2.597 -0.988,5.245 -0.989,7.935 -0.002,4.585 -0.003,9.17 -0.002,13.756 0,0.168 0.02,0.337 0.039,0.623 h 24.698 v 5.783 h -24.676 v 5.747 h 24.656 v 5.77 h -24.679 v 5.728 h 24.675 v 5.803 h -24.658 v 5.75 h 24.671 v 5.751 h -24.644 c -0.035,0.299 -0.081,0.515 -0.081,0.731 0.004,3.132 -0.035,6.266 0.031,9.397 0.3,14.148 10.101,26.534 23.338,29.497 1.591,0.356 3.211,0.568 4.818,0.847 z"
             style="fill:#ffffff;fill-opacity:1;fill-rule:nonzero;stroke:none"
             id="path84" />
        </g>
        <g
           id="g86"
           transform="translate(847.1357,673.1689)">
          <path
             d="m 0,0 h -6.48 l -6.562,25.456 V 0 h -6.682 V 31.819 H -8.855 L -3.26,8.997 2.456,31.819 H 13.203 V 0 H 6.521 v 25.5 z"
             style="fill:#000000;fill-opacity:1;fill-rule:nonzero;stroke:none"
             id="path88" />
        </g>
        <g
           id="g90"
           transform="translate(873.3608,696.6274)">
          <path
             d="m 0,0 c -1.49,-1.799 -2.234,-4.323 -2.234,-7.571 0,-3.247 0.744,-5.771 2.234,-7.571 1.489,-1.799 3.361,-2.699 5.615,-2.699 2.254,0 4.126,0.9 5.615,2.699 1.49,1.8 2.235,4.324 2.235,7.571 0,3.248 -0.745,5.772 -2.235,7.571 C 9.741,1.8 7.869,2.699 5.615,2.699 3.361,2.699 1.489,1.8 0,0 m 16.544,4.367 c 2.804,-3.014 4.206,-6.993 4.206,-11.938 0,-4.945 -1.402,-8.924 -4.206,-11.937 -2.805,-3.014 -6.447,-4.521 -10.929,-4.521 -4.508,0 -8.158,1.507 -10.949,4.521 -2.791,3.013 -4.186,6.992 -4.186,11.937 0,4.945 1.395,8.924 4.186,11.938 2.791,3.013 6.441,4.521 10.949,4.521 4.482,0 8.124,-1.508 10.929,-4.521"
             style="fill:#000000;fill-opacity:1;fill-rule:nonzero;stroke:none"
             id="path92" />
        </g>
        <g
           id="g94"
           transform="translate(916.2905,684.0752)">
          <path
             d="m 0,0 c 0.51,1.331 0.765,3.006 0.765,5.025 0,2.019 -0.255,3.694 -0.765,5.026 -0.51,1.331 -1.254,2.311 -2.234,2.94 -0.98,0.629 -1.979,1.053 -2.999,1.273 -1.02,0.219 -2.241,0.329 -3.663,0.329 h -2.858 V -4.586 h 2.858 c 1.422,0 2.643,0.109 3.663,0.329 1.02,0.219 2.019,0.651 2.999,1.295 C -1.254,-2.319 -0.51,-1.332 0,0 m -18.637,20.913 h 9.62 c 11.378,0 17.068,-5.296 17.068,-15.888 0,-10.621 -5.69,-15.931 -17.068,-15.931 h -9.62 z"
             style="fill:#000000;fill-opacity:1;fill-rule:nonzero;stroke:none"
             id="path96" />
        </g>
        <g
           id="g98"
           transform="translate(927.8437,673.1689)">
          <path
             d="M 0,0 V 31.819 H 22.381 V 25.236 H 6.883 V 19.662 H 21.536 V 13.035 H 6.883 V 6.627 H 22.381 V 0 Z"
             style="fill:#000000;fill-opacity:1;fill-rule:nonzero;stroke:none"
             id="path100" />
        </g>
        <g
           id="g102"
           transform="translate(961.4146,704.9883)">
          <path
             d="m 0,0 v -25.192 h 14.008 v -6.627 H -6.883 l 0,31.819 z"
             style="fill:#000000;fill-opacity:1;fill-rule:nonzero;stroke:none"
             id="path104" />
        </g>
        <g
           id="g106"
           transform="translate(986.2109,704.9883)">
          <path
             d="m 0,0 h 6.883 v -19.004 c 0,-2.517 0.403,-4.352 1.208,-5.508 0.805,-1.156 2.335,-1.734 4.589,-1.734 2.254,0 3.763,0.629 4.528,1.888 0.765,1.257 1.147,3.189 1.147,5.793 V 0 h 6.884 v -17.95 c 0,-4.975 -0.973,-8.625 -2.919,-10.951 -1.945,-2.326 -5.159,-3.489 -9.64,-3.489 -4.455,0 -7.682,1.076 -9.681,3.226 C 1,-27.014 0,-23.364 0,-18.214 Z"
             style="fill:#000000;fill-opacity:1;fill-rule:nonzero;stroke:none"
             id="path108" />
        </g>
        <g
           id="g110"
           transform="translate(1043.0083,673.1689)">
          <path
             d="M 0,0 H -8.373 L -20.086,21.944 V 0 h -6.643 v 31.819 h 8.373 L -6.642,9.875 V 31.819 H 0 Z"
             style="fill:#000000;fill-opacity:1;fill-rule:nonzero;stroke:none"
             id="path112" />
        </g>
        <path
           d="m 1055.165,673.169 h -6.883 v 31.819 h 6.883 z"
           style="fill:#000000;fill-opacity:1;fill-rule:nonzero;stroke:none"
           id="path114" />
        <g
           id="g116"
           transform="translate(1067.3208,673.1689)">
          <path
             d="m 0,0 v 25.236 h -9.339 v 6.583 H 16.302 V 25.236 H 6.924 L 6.924,0 Z"
             style="fill:#000000;fill-opacity:1;fill-rule:nonzero;stroke:none"
             id="path118" />
        </g>
        <g
           id="g120"
           transform="translate(1086.4805,673.1689)">
          <path
             d="M 0,0 V 31.819 H 22.382 V 25.236 H 6.884 V 19.662 H 21.536 V 13.035 H 6.884 V 6.627 H 22.382 V 0 Z"
             style="fill:#000000;fill-opacity:1;fill-rule:nonzero;stroke:none"
             id="path122" />
        </g>
        <g
           id="g124"
           transform="translate(1131.8057,684.0752)">
          <path
             d="m 0,0 c 0.51,1.331 0.765,3.006 0.765,5.025 0,2.019 -0.255,3.694 -0.765,5.026 -0.51,1.331 -1.255,2.311 -2.233,2.94 -0.981,0.629 -1.98,1.053 -2.999,1.273 -1.021,0.219 -2.242,0.329 -3.664,0.329 h -2.858 V -4.586 h 2.858 c 1.422,0 2.643,0.109 3.664,0.329 1.019,0.219 2.018,0.651 2.999,1.295 C -1.255,-2.319 -0.51,-1.332 0,0 m -18.638,20.913 h 9.621 c 11.378,0 17.068,-5.296 17.068,-15.888 0,-10.621 -5.69,-15.931 -17.068,-15.931 h -9.621 z"
             style="fill:#000000;fill-opacity:1;fill-rule:nonzero;stroke:none"
             id="path126" />
        </g>
        <g
           id="g128"
           transform="translate(1178.7412,673.1689)">
          <path
             d="M 0,0 H -8.372 L -20.086,21.944 V 0 h -6.643 v 31.819 h 8.374 L -6.642,9.875 V 31.819 H 0 Z"
             style="fill:#000000;fill-opacity:1;fill-rule:nonzero;stroke:none"
             id="path130" />
        </g>
        <g
           id="g132"
           transform="translate(1195.4873,697.0444)">
          <path
             d="M 0,0 -3.783,-12.113 H 3.744 Z M -14.732,-23.875 -3.743,7.944 h 7.567 l 11.03,-31.819 H 7.367 l -1.771,5.661 H -5.676 l -1.73,-5.661 z"
             style="fill:#000000;fill-opacity:1;fill-rule:nonzero;stroke:none"
             id="path134" />
        </g>
        <g
           id="g136"
           transform="translate(1215.4531,673.1689)">
          <path
             d="m 0,0 v 25.236 h -9.339 v 6.583 H 16.303 V 25.236 H 6.924 L 6.924,0 Z"
             style="fill:#000000;fill-opacity:1;fill-rule:nonzero;stroke:none"
             id="path138" />
        </g>
        <path
           d="m 1241.497,673.169 h -6.884 v 31.819 h 6.884 z"
           style="fill:#000000;fill-opacity:1;fill-rule:nonzero;stroke:none"
           id="path140" />
        <g
           id="g142"
           transform="translate(1254.5176,696.6274)">
          <path
             d="m 0,0 c -1.489,-1.799 -2.233,-4.323 -2.233,-7.571 0,-3.247 0.744,-5.771 2.233,-7.571 1.489,-1.799 3.361,-2.699 5.615,-2.699 2.255,0 4.126,0.9 5.616,2.699 1.49,1.8 2.234,4.324 2.234,7.571 0,3.248 -0.744,5.772 -2.234,7.571 C 9.741,1.8 7.87,2.699 5.615,2.699 3.361,2.699 1.489,1.8 0,0 m 16.545,4.367 c 2.804,-3.014 4.206,-6.993 4.206,-11.938 0,-4.945 -1.402,-8.924 -4.206,-11.937 -2.805,-3.014 -6.448,-4.521 -10.93,-4.521 -4.508,0 -8.158,1.507 -10.948,4.521 -2.792,3.013 -4.187,6.992 -4.187,11.937 0,4.945 1.395,8.924 4.187,11.938 2.79,3.013 6.44,4.521 10.948,4.521 4.482,0 8.125,-1.508 10.93,-4.521"
             style="fill:#000000;fill-opacity:1;fill-rule:nonzero;stroke:none"
             id="path144" />
        </g>
        <g
           id="g146"
           transform="translate(1305.5391,673.1689)">
          <path
             d="M 0,0 H -8.372 L -20.086,21.944 V 0 h -6.643 v 31.819 h 8.374 L -6.642,9.875 V 31.819 H 0 Z"
             style="fill:#000000;fill-opacity:1;fill-rule:nonzero;stroke:none"
             id="path148" />
        </g>
        <g
           id="g150"
           transform="translate(1333.5957,695.772)">
          <path
             d="m 0,0 h -6.803 c -0.349,1.199 -1.026,2.121 -2.033,2.765 -1.006,0.643 -2.248,0.965 -3.724,0.965 -1.395,0 -2.515,-0.271 -3.361,-0.812 -0.845,-0.542 -1.267,-1.294 -1.267,-2.26 0,-0.79 0.301,-1.463 0.905,-2.019 0.604,-0.556 1.429,-0.951 2.475,-1.185 l 3.986,-0.877 c 1.208,-0.264 2.2,-0.505 2.979,-0.725 0.778,-0.219 1.703,-0.578 2.778,-1.075 1.072,-0.498 1.924,-1.047 2.555,-1.646 0.63,-0.6 1.181,-1.404 1.651,-2.414 0.469,-1.009 0.704,-2.158 0.704,-3.445 0,-3.16 -1.228,-5.691 -3.683,-7.593 -2.456,-1.902 -5.308,-2.852 -8.554,-2.852 -3.757,0 -6.802,0.958 -9.137,2.874 -2.335,1.916 -3.771,4.601 -4.308,8.054 h 6.844 c 0.751,-3.248 3.005,-4.872 6.763,-4.872 1.368,0 2.542,0.278 3.521,0.834 0.98,0.555 1.47,1.433 1.47,2.633 0,0.966 -0.463,1.741 -1.389,2.326 -0.926,0.585 -2.274,1.083 -4.046,1.492 l -3.542,0.79 c -6.038,1.346 -9.057,4.434 -9.057,9.261 0,2.048 0.624,3.819 1.872,5.311 1.248,1.492 2.763,2.567 4.548,3.225 1.785,0.659 3.684,0.988 5.696,0.988 1.986,0 3.81,-0.315 5.474,-0.944 C -5.019,8.17 -3.563,7.102 -2.314,5.596 -1.066,4.088 -0.296,2.223 0,0"
             style="fill:#000000;fill-opacity:1;fill-rule:nonzero;stroke:none"
             id="path152" />
        </g>
        <path
           d="m 1138.23,769.632 h 54.642 v 21.759 h -54.642 z m -25.379,-47.959 h 25.378 v 47.959 h -25.378 z m 0,69.718 h 25.379 v 26.2 h 59.749 v 21.76 h -85.128 z m 128.891,-47.959 v 95.919 h -25.379 V 721.673 h 85.128 v 21.759 z m -170.1,61.126 c 0.09,2.367 -0.579,4.701 -1.91,6.661 -1.29,1.738 -3.012,3.108 -4.995,3.974 -2.308,1.007 -4.757,1.651 -7.261,1.91 -2.844,0.335 -5.706,0.499 -8.57,0.488 h -20.094 v -26.2 h 20.071 c 2.864,-0.01 5.726,0.153 8.571,0.489 2.501,0.263 4.948,0.899 7.26,1.887 1.988,0.879 3.717,2.256 5.018,3.997 1.359,1.997 2.029,4.382 1.91,6.794 m 22.936,12.789 c 2.96,-8.345 2.96,-17.455 0,-25.8 -1.504,-4.182 -3.924,-7.975 -7.083,-11.102 -3.636,-3.476 -7.963,-6.146 -12.7,-7.838 -6.03,-2.121 -12.394,-3.129 -18.784,-2.975 h -27.199 v -47.959 h -25.379 v 117.678 h 52.578 c 6.419,0.165 12.815,-0.843 18.872,-2.976 4.706,-1.702 9.002,-4.372 12.612,-7.837 3.165,-3.157 5.584,-6.98 7.083,-11.191 M 921.924,769.632 h 54.643 v 21.759 h -54.643 z m -25.378,-47.959 h 85.128 v 21.759 h -59.75 v 26.2 h -25.378 z m 0,117.678 h 85.128 v -21.76 h -59.75 v -26.2 h -25.378 z"
           style="fill:#ec2024;fill-opacity:1;fill-rule:nonzero;stroke:none"
           id="path154" />
        <path
           d="m 896.546,769.632 h 25.463 v 21.759 h -25.463 z"
           style="fill:#ec2024;fill-opacity:1;fill-rule:nonzero;stroke:none"
           id="path156" />
        <path
           d="m 1112.809,769.632 h 25.462 v 21.759 h -25.462 z"
           style="fill:#ec2024;fill-opacity:1;fill-rule:nonzero;stroke:none"
           id="path158" />
      </g>
    </g>
  </g>
</svg>
