<?xml version="1.0" encoding="UTF-8"?>
<svg data-bbox="0 0 1729.09 888.13" viewBox="0 0 1729.09 888.13" xmlns="http://www.w3.org/2000/svg" data-type="color">
    <g>
        <g>
            <path fill="#ffffff" d="M0 775.43v-9.32h1729.09v9.32z" data-color="1"/>
            <path d="M474.51 886.88h-14.67l-14.86-55.48v55.48h-15.13v-69.35h24.61l12.67 49.74 12.94-49.74h24.33v69.35h-15.13V831.3zm96.84-60.64c6.35 6.57 9.52 15.24 9.52 26.02s-3.18 19.45-9.52 26.02c-6.35 6.57-14.6 9.85-24.74 9.85s-18.47-3.28-24.79-9.85-9.48-15.24-9.48-26.02 3.16-19.45 9.48-26.02 14.58-9.85 24.79-9.85 18.39 3.29 24.74 9.85m-37.46 9.51c-3.37 3.92-5.06 9.42-5.06 16.5s1.69 12.58 5.06 16.5 7.61 5.88 12.71 5.88 9.34-1.96 12.71-5.88 5.06-9.42 5.06-16.5-1.69-12.58-5.06-16.5-7.61-5.88-12.71-5.88-9.34 1.96-12.71 5.88m55-18.22h21.78c25.76 0 38.64 11.54 38.64 34.63s-12.88 34.72-38.64 34.72h-21.78zm42.2 45.58c1.15-2.9 1.73-6.55 1.73-10.95s-.58-8.05-1.73-10.95-2.84-5.04-5.06-6.41-4.48-2.3-6.79-2.77c-2.31-.48-5.07-.72-8.29-.72h-6.47v41.8h6.47c3.22 0 5.98-.24 8.29-.72s4.57-1.42 6.79-2.82 3.9-3.55 5.06-6.46m26.15 23.77v-69.35h50.67v14.35h-35.09v12.15h33.17v14.44h-33.17v13.97h35.09v14.44zm76.01-69.35v54.91h31.72v14.44h-47.3v-69.35zm56.14 0h15.58v41.42q0 8.235 2.73 12c1.82 2.52 5.29 3.78 10.39 3.78s8.52-1.37 10.25-4.11 2.6-6.95 2.6-12.63v-40.46h15.58v39.12c0 10.84-2.2 18.8-6.61 23.87s-11.68 7.6-21.83 7.6-17.39-2.34-21.92-7.03-6.79-12.64-6.79-23.87v-39.7Zm128.6 69.35h-18.96l-26.52-47.83v47.83h-15.04v-69.35h18.96l26.52 47.83v-47.83h15.04zm27.52-69.35v69.35h-15.58v-69.35zm27.53 69.35v-55H951.9v-14.35h58.05v14.35h-21.24v55h-15.68Zm43.38 0v-69.35h50.67v14.35H1032v12.15h33.17v14.44H1032v13.97h35.09v14.44zm60.42-69.35h21.78c25.76 0 38.64 11.54 38.64 34.63s-12.88 34.72-38.64 34.72h-21.78zm42.2 45.58c1.15-2.9 1.73-6.55 1.73-10.95s-.58-8.05-1.73-10.95c-1.16-2.9-2.84-5.04-5.06-6.41s-4.48-2.3-6.79-2.77c-2.31-.48-5.07-.72-8.29-.72h-6.47v41.8h6.47c3.22 0 5.98-.24 8.29-.72s4.57-1.42 6.79-2.82 3.9-3.55 5.06-6.46m106.27 23.77h-18.96l-26.52-47.83v47.83h-15.04v-69.35h18.96l26.52 47.83v-47.83h15.04zm4.55 0 24.88-69.35h17.13l24.97 69.35h-16.95l-4.01-12.34h-25.52l-3.92 12.34h-16.59Zm33.36-52.03-8.57 26.4h17.04l-8.48-26.4Zm45.2 52.03v-55h-21.14v-14.35h58.05v14.35h-21.24v55h-15.68Zm58.97-69.35v69.35h-15.58v-69.35zm66.94 8.71c6.35 6.57 9.52 15.24 9.52 26.02s-3.17 19.45-9.52 26.02-14.6 9.85-24.74 9.85-18.47-3.28-24.79-9.85-9.48-15.24-9.48-26.02 3.16-19.45 9.48-26.02 14.58-9.85 24.79-9.85 18.39 3.29 24.74 9.85m-37.46 9.51c-3.37 3.92-5.06 9.42-5.06 16.5s1.69 12.58 5.06 16.5 7.61 5.88 12.71 5.88 9.34-1.96 12.71-5.88 5.06-9.42 5.06-16.5-1.69-12.58-5.06-16.5-7.61-5.88-12.71-5.88-9.34 1.96-12.71 5.88m115.52 51.13h-18.96l-26.52-47.83v47.83h-15.04v-69.35h18.96l26.52 47.83v-47.83h15.04zm63.52-49.26h-15.4c-.79-2.61-2.32-4.62-4.6-6.03q-3.42-2.1-8.43-2.1c-3.16 0-5.7.59-7.61 1.77s-2.87 2.82-2.87 4.93c0 1.72.68 3.19 2.05 4.4s3.24 2.07 5.6 2.58l9.02 1.91c2.73.57 4.98 1.1 6.74 1.58s3.86 1.26 6.29 2.34 4.36 2.28 5.79 3.59 2.67 3.06 3.74 5.26c1.06 2.2 1.59 4.7 1.59 7.51 0 6.89-2.78 12.4-8.34 16.55s-12.02 6.22-19.37 6.22c-8.51 0-15.4-2.09-20.69-6.27q-7.935-6.27-9.75-17.55h15.49c1.7 7.08 6.8 10.62 15.31 10.62 3.1 0 5.76-.61 7.97-1.82 2.22-1.21 3.33-3.12 3.33-5.74 0-2.1-1.05-3.79-3.14-5.07-2.1-1.27-5.15-2.36-9.16-3.25l-8.02-1.72c-13.67-2.93-20.51-9.66-20.51-20.18 0-4.46 1.41-8.32 4.24-11.58 2.83-3.25 6.26-5.6 10.3-7.03 4.04-1.44 8.34-2.15 12.9-2.15s8.63.69 12.39 2.06c3.77 1.37 7.06 3.7 9.89 6.98 2.83 3.29 4.57 7.35 5.24 12.2Z" fill="#ffffff" data-color="1"/>
            <path d="M151.26 816.47h50.98v13.03h-35.78v15.69h-15.2zm0 70.47h50.98v-13.03h-35.78v-15.69h-15.2zm15.2-28.72h32.72v-13.03h-32.72zm103.39-28.58c1.77 5 1.77 10.45 0 15.45-.9 2.5-2.35 4.78-4.24 6.65a21.4 21.4 0 0 1-7.61 4.69 31.7 31.7 0 0 1-11.25 1.78h-16.29v28.72h-15.2v-70.47h31.49c3.84-.1 7.67.5 11.3 1.78 2.82 1.02 5.39 2.62 7.55 4.69 1.9 1.89 3.34 4.18 4.24 6.7Zm-13.74 7.66c.05-1.42-.35-2.82-1.14-3.99a7.4 7.4 0 0 0-2.99-2.38c-1.38-.6-2.85-.99-4.35-1.14-1.7-.2-3.42-.3-5.13-.29h-12.03v15.69h12.02c1.72 0 3.43-.09 5.13-.29 1.5-.16 2.96-.54 4.35-1.13a7.55 7.55 0 0 0 3-2.39c.81-1.2 1.22-2.62 1.14-4.07Zm101.87 36.61v-57.44h-15.2v70.47h50.98v-13.03zm-77.19-28.72h15.2V829.5h35.78v-13.03h-50.98zm0 41.75h15.2v-28.72h-15.2zm15.2-28.72h32.72v-13.03h-32.72z" fill="#ed2224" data-color="2"/>
        </g>
        <path fill="#ffffff" d="M404.29 336.58v9.4H0v-9.4z" data-color="1"/>
        <path fill="#ffffff" d="M404.29 411.52v9.4H146.75v-9.4z" data-color="1"/>
        <path fill="#ffffff" d="M404.29 261.65v9.4H146.75v-9.4z" data-color="1"/>
        <path fill="#ffffff" d="M1324.79 345.99v-9.4h404.29v9.4z" data-color="1"/>
        <path fill="#ffffff" d="M1324.79 420.93v-9.4h257.54v9.4z" data-color="1"/>
        <path fill="#ffffff" d="M1324.79 271.05v-9.4h257.54v9.4z" data-color="1"/>
        <path d="M659.75 600.68c-34.13-28.74-39.52-70.06-53.89-105.99-8.98-23.35-25.15-43.12-41.32-62.88 21.56 61.08 8.98 104.2 61.08 147.31-8.98-3.59-17.96-10.78-25.15-16.17-41.32-34.13-102.4-39.52-127.55-95.21 7.19 41.32 39.52 77.25 73.66 100.6 34.13 21.56 77.25 19.76 113.18 32.34Zm89.82 21.56c5.39-1.8 12.58-1.8 19.76-3.59-25.15-3.59-48.5-12.58-66.47-28.74-26.95-25.15-50.3-50.3-79.04-70.06 30.54 61.08 41.32 86.23 91.62 97.01 0 0-14.37-1.8-21.56-3.59-53.89-10.78-118.57 3.59-158.09-41.32 16.17 28.74 46.71 52.1 75.45 62.88 46.71 14.37 95.21-1.8 138.33-12.58Zm71.86-3.59c-86.23 0-131.14 75.45-215.58 25.15 41.32 50.3 107.79 53.89 161.68 19.76 21.56-14.37 41.32-34.13 68.27-34.13 41.32 0 86.23 43.12 123.96 82.64 7.19-5.39 12.58-10.78 17.96-16.17-39.52-37.73-97.01-77.25-156.29-77.25M578.9 534.21s-10.78-19.76-14.37-32.34c-12.58-48.5-5.39-107.79-26.95-154.5 3.59 26.95-7.19 50.3-8.98 75.45-3.59 34.13 8.98 57.49 17.96 73.66 0 0-12.58-16.17-17.96-25.15-25.15-39.52-77.25-66.47-80.84-114.97-7.19 105.99 66.47 134.74 131.14 177.85m-25.15-314.38c7.19-14.37 10.78-32.34 14.37-48.5-3.59 7.19-7.19 14.37-12.58 19.76-34.13 28.74-53.89 44.91-62.88 89.82l3.59-39.52c3.59-39.52-17.96-82.64 5.39-116.77-23.35 25.15-35.93 57.49-35.93 89.82 0 43.12 25.15 73.66 26.95 114.97 7.19-43.12 43.12-73.66 61.08-109.58Zm-12.57-79.04c16.17-14.37 35.93-26.95 50.3-44.91 16.17-21.56 30.54-46.71 52.1-66.47-28.74 12.58-61.08 23.35-80.84 53.89-10.78 17.96-12.58 39.52-21.56 57.49m-35.93 86.23c7.19-14.37 19.76-28.74 32.34-39.52 32.34-23.35 64.67-53.89 66.47-93.42-17.96 43.12-73.66 50.3-86.23 95.21 0 0 7.19-26.95 8.98-32.34 8.98-30.54 7.19-66.47 37.73-86.23-59.28 12.58-62.88 77.25-59.28 125.75 0 10.78 1.8 19.76 0 30.54Zm8.98 208.39s-3.59-34.13 1.8-48.5c14.37-43.12 28.74-89.82 26.95-134.74-14.37 53.89-59.28 71.86-39.52 145.51-7.19-14.37-8.98-30.54-14.37-44.91-10.78-39.52-41.32-73.66-32.34-120.36-14.37 41.32-14.37 73.66 0 116.77 8.98 32.34 41.32 55.69 57.49 86.23Zm555.11 165.27c34.13-28.74 39.52-70.06 53.89-105.99 8.98-23.35 25.15-43.12 41.32-62.88-21.56 61.08-8.98 104.2-61.08 147.31 8.98-3.59 17.96-10.78 25.15-16.17 41.32-34.13 102.4-39.52 127.55-95.21-7.19 41.32-39.52 77.25-73.66 100.6-34.13 21.56-77.25 19.76-113.18 32.34Zm-89.82 21.56c-5.39-1.8-12.58-1.8-19.76-3.59 25.15-3.59 48.5-12.58 66.47-28.74 26.95-25.15 50.3-50.3 79.04-70.06-30.54 61.08-41.32 86.23-91.62 97.01 0 0 14.37-1.8 21.56-3.59 53.89-10.78 118.57 3.59 158.09-41.32-16.17 28.74-46.71 52.1-75.45 62.88-46.71 14.37-95.21-1.8-138.33-12.58Zm-71.86-3.59c86.23 0 131.14 75.45 215.58 25.15-41.32 50.3-107.79 53.89-161.68 19.76-21.56-14.37-41.32-34.13-68.27-34.13-41.32 0-86.23 43.12-123.96 82.64-7.19-5.39-12.58-10.78-17.96-16.17 39.52-37.73 97.01-77.25 156.29-77.25m242.52-84.44s10.78-19.76 14.37-32.34c12.58-48.5 5.39-107.79 26.95-154.5-3.59 26.95 7.19 50.3 8.98 75.45 3.59 34.13-8.98 57.49-17.96 73.66 0 0 12.58-16.17 17.96-25.15 25.15-39.52 77.25-66.47 80.84-114.97 7.19 105.99-66.47 134.74-131.14 177.85m25.15-314.38c-7.19-14.37-10.78-32.34-14.37-48.5 3.59 7.19 7.19 14.37 12.58 19.76 34.13 28.74 53.89 44.91 62.88 89.82l-3.59-39.52c-3.59-39.52 17.96-82.64-5.39-116.77 23.35 25.15 35.93 57.49 35.93 89.82 0 43.12-25.15 73.66-26.95 114.97-7.19-43.12-43.12-73.66-61.08-109.58Zm12.58-79.04c-16.17-14.37-35.93-26.95-50.3-44.91-16.17-21.56-30.54-46.71-52.1-66.47 28.74 12.58 61.08 23.35 80.84 53.89 10.78 17.96 12.58 39.52 21.56 57.49m35.93 86.23c-7.19-14.37-19.76-28.74-32.34-39.52-32.34-23.35-64.67-53.89-66.47-93.42 17.96 43.12 73.66 50.3 86.23 95.21 0 0-7.19-26.95-8.98-32.34-8.98-30.54-7.19-66.47-37.73-86.23 59.28 12.58 62.88 77.25 59.28 125.75 0 10.78-1.8 19.76 0 30.54Zm-8.99 208.39s3.59-34.13-1.8-48.5c-14.37-43.12-28.74-89.82-26.95-134.74 14.37 53.89 59.28 71.86 39.52 145.51 7.19-14.37 8.98-30.54 14.37-44.91 10.78-39.52 41.32-73.66 32.34-120.36 14.37 41.32 14.37 73.66 0 116.77-8.98 32.34-41.32 55.69-57.49 86.23Z" fill="#ffffff" data-color="1"/>
        <g>
            <path d="M864.54 610.47c-16.79 0-33.61 2.84-50.4 8.38 0 9.46-.03 19.05.67 28.48.54 7.61 1.53 15.13 3.38 22.36 5.32 21.06 17.68 39.85 46.35 52.47 28.45-12.52 40.84-31.12 46.22-51.99 1.88-7.23 2.93-14.78 3.47-22.4.73-9.59.7-19.34.7-28.93-16.79-5.54-33.61-8.38-50.4-8.38Zm33.61 60.47h-23.54v23.51h-20.13v-23.51h-23.54v-20.17h23.54v-23.51h20.13v23.51h23.54z" fill="#ed2224" data-color="2"/>
            <path fill="#ffffff" d="M898.15 650.77v20.17h-23.54v23.51h-20.13v-23.51h-23.55v-20.17h23.55v-23.51h20.13v23.51z" data-color="1"/>
        </g>
        <path d="M1137.92 181.21c-14.94-35.34-36.34-67.06-63.58-94.3s-58.98-48.65-94.31-63.59C943.45 7.85 904.59 0 864.54 0s-78.91 7.85-115.49 23.32C713.72 38.26 682 59.65 654.74 86.91s-48.63 58.96-63.58 94.3c-15.46 36.58-23.31 75.43-23.31 115.48s7.85 78.91 23.31 115.49c14.95 35.33 36.34 67.06 63.58 94.31 27.26 27.24 58.98 48.64 94.31 63.58 27.05 11.44 55.34 18.71 84.44 21.71 8.11.85 16.27 1.35 24.5 1.53.51.01 1.02.03 1.54.03 1.67.03 3.33.04 5.01.04 1.78 0 3.56-.01 5.34-.04.26-.01.52-.01.78-.02 8.66-.17 17.25-.71 25.78-1.63 28.8-3.05 56.8-10.29 83.59-21.62 35.33-14.94 67.05-36.34 94.31-63.58 27.24-27.25 48.64-58.98 63.58-94.31 15.46-36.58 23.31-75.43 23.31-115.49s-7.85-78.9-23.31-115.48M675.15 444.68l-6.36 9.49c-4.06-2.89-7.52-3.98-10.56-3.32-4.48.95-6.69 5.28-8.64 9.1-.62 1.21-1.22 2.37-1.82 3.3-3.35-1.78-5.61-4.54-7.96-9.61l-.97-2.09-1.95 1.22c-1.38.86-2.75 1.73-4.11 2.58-2.11 1.33-4.26 2.68-6.42 4.02l-1.02-1.46 26.61-34.01 23.28 20.66zm314.29-50.52c-.32 1.01-.94 2.11-1.59 3.25-.65 1.18-1.38 2.45-1.87 3.83-6.03-1.79-11.01-4.48-16.75-7.73l-1.71-.97-3.48 5.68-8.04 13.13c-3.08-2.69-5.4-6.72-7.89-13.56l-.85-2.35-19.83 12.28c-9.35-2.51-17.36-9.51-25.11-16.27-5.97-5.21-11.59-10.13-17.49-12.66l-.89-.38-.86.45c-6.66 3.5-12.74 7.07-18.63 10.52-5.35 3.14-10.88 6.38-16.77 9.51-5.97-7-7.35-10.31-10.47-20.61l-.58-1.91-1.92.54c-11.82 3.34-37.1 19.42-47.36 27.51l-10.74-7.5-.89 2.51c-2.2 6.14-3.92 7.2-6.78 8.96-.19.13-.4.25-.62.39-1.55-2.34-3.09-4.05-4.61-5.71-1.84-2.04-3.58-3.96-5.33-6.98l-1.04-1.78-1.76 1.05c-5.84 3.5-10.85 6.35-17.09 8.19l-7.83-4.78h-.01l7.21-6.69 9.34-11.24 9.65-11.61 17.83-21.45 24.09 37.96 1.11 1.74.62.99 1.79-1.55c12.21-10.6 21.28-19.96 30.05-29.01 3.5-3.61 7.05-7.27 10.83-11.03 4.9-4.6 9.81-9.2 14.7-13.81.33-.31.64-.64.94-.98 1.02-.92 2.06-1.83 3.13-2.75.18-.17.38-.34.58-.51l.27-.24.9.75c.19.17.38.33.57.49.22.19.44.38.66.56 1.47 1.23 2.86 2.41 4.17 3.59 11.77 10.62 23.52 21.26 35.28 31.89l15.52 14.04c2.5 2.26 5 4.52 7.49 6.79.11.09.22.2.33.3 1.66 1.5 3.32 3 4.96 4.5l2.33 2.12.98-2.99c2.89-8.92 5.79-17.83 8.7-26.75 1.77-5.45 3.55-10.92 5.33-16.38l19.08 22.48 10.54 12.41 9.86 11.62s-.03.1-.05.15m110.58 64.78s-.07.09-.1.14c-.22.33-.45.67-.68 1.02-2.82-1.68-5.61-3.42-8.31-5.12-1.26-.78-2.53-1.56-3.79-2.35l-1.94-1.19-.98 2.06c-2.26 4.81-4.42 7.45-7.62 9.14-.57-.88-1.14-1.97-1.73-3.11-1.89-3.66-4.04-7.81-8.39-8.74-.56-.12-1.13-.18-1.72-.18-2.52 0-5.33 1.11-8.52 3.33l-6.27-9.25-.15-.23 23.17-20.55 5.4 6.96.26.33 7.14 9.2 14.3 18.44s-.05.06-.07.1m4.85-1.02-.77-.54-4.58-5.91v-.45l-.55-.26-.17-.08c-3.33-4.35-6.66-8.69-10.01-13.03l-6.95-8.97-.32-.4-7.98-10.29-26.49 23.5-53.91-49.46-44.77-52.75-1.11 3.5c-.14.43-.22.7-.29.9l-.1.3c-2.01 6.22-4.04 12.43-6.06 18.64-2.58 7.92-5.16 15.84-7.73 23.76-3.48-3.16-6.97-6.32-10.46-9.48l-15.52-14.05c-11.75-10.63-23.51-21.27-35.3-31.89-1.54-1.4-3.18-2.78-4.92-4.23-.89-.76-1.83-1.55-2.8-2.39l-1.35-1.15-1.74 1.56c-.61.54-.88.79-1.14 1.02-12.39 10.71-21.55 20.17-30.43 29.31-8.28 8.54-16.82 17.36-28.02 27.22l-26.29-41.41-40.21 48.38-8.74 8.11c-15.85 14.55-31.66 29.06-47.54 43.61l-.18.16-.25-.24-.45.44L651.42 418l-29.08 37.13c-29.9-45.55-47.3-99.99-47.3-158.44 0-159.62 129.87-289.49 289.5-289.49s289.5 129.87 289.5 289.49c0 59.64-18.12 115.12-49.17 161.23" fill="#ffffff" data-color="1"/>
        <path d="m1100.09 458.84-.07.1c-.03.05-.07.1-.1.15-.22.33-.46.67-.68 1.02-2.81-1.68-5.6-3.42-8.31-5.12-1.26-.78-2.52-1.56-3.79-2.35l-1.94-1.2-.98 2.07c-2.26 4.81-4.42 7.44-7.63 9.13-.57-.88-1.14-1.97-1.72-3.11-1.89-3.66-4.04-7.81-8.39-8.74a9 9 0 0 0-1.72-.18c-2.52 0-5.33 1.11-8.52 3.33l-6.27-9.25-.15-.23 23.17-20.55 5.41 6.96.25.33 7.14 9.21 14.31 18.44Z" fill="#000000" data-color="3"/>
        <path d="M989.49 394.01s-.03.1-.05.15c-.32 1.01-.94 2.11-1.59 3.25-.66 1.17-1.38 2.45-1.87 3.82-6.03-1.79-11.01-4.47-16.75-7.73l-1.71-.97-3.48 5.68-8.04 13.13c-3.08-2.69-5.4-6.73-7.89-13.57l-.85-2.35-19.83 12.28c-9.34-2.5-17.35-9.51-25.11-16.27-5.96-5.2-11.59-10.13-17.48-12.65l-.89-.38-.85.46c-6.66 3.5-12.74 7.07-18.63 10.52-5.35 3.14-10.88 6.38-16.77 9.52-5.97-7-7.35-10.31-10.47-20.62l-.58-1.91-1.92.54c-11.82 3.34-37.1 19.42-47.36 27.5l-10.73-7.5-.89 2.51c-2.2 6.14-3.92 7.2-6.77 8.95-.2.13-.41.25-.62.39-1.55-2.33-3.1-4.05-4.61-5.71-1.84-2.03-3.58-3.95-5.33-6.98l-1.03-1.78-1.76 1.06c-5.84 3.5-10.85 6.34-17.09 8.18l-7.82-4.77h-.02l7.21-6.69 9.34-11.24 9.65-11.61 17.83-21.45 24.1 37.95 1.11 1.74.63.99 1.78-1.55c12.22-10.6 21.28-19.96 30.06-29.01 3.5-3.61 7.04-7.26 10.82-11.03 4.9-4.59 9.81-9.2 14.7-13.81.33-.31.64-.64.94-.98 1.02-.91 2.06-1.82 3.12-2.75.19-.17.38-.33.58-.5.09-.07.18-.15.28-.24.3.25.6.5.89.75.2.17.38.33.58.5.22.19.44.37.66.55 1.46 1.24 2.86 2.42 4.16 3.59 11.78 10.62 23.53 21.26 35.28 31.89l15.53 14.04c2.5 2.26 5 4.52 7.49 6.78.11.1.22.2.33.31 1.66 1.5 3.32 2.99 4.96 4.5l2.33 2.12.98-2.99c2.9-8.92 5.8-17.83 8.7-26.75 1.77-5.46 3.55-10.92 5.33-16.39l19.08 22.48 10.54 12.42 9.86 11.62Z" fill="#000000" data-color="3"/>
        <path d="m675.23 444.56-.08.12-6.36 9.49c-4.06-2.89-7.52-3.98-10.56-3.33-4.48.96-6.69 5.29-8.64 9.1-.62 1.21-1.22 2.37-1.82 3.3-3.35-1.77-5.6-4.54-7.95-9.6l-.98-2.09-1.95 1.22-4.11 2.58c-2.11 1.33-4.26 2.68-6.42 4.02l-1.02-1.46 26.62-34.01 23.28 20.66Z" fill="#000000" data-color="3"/>
        <path d="M903.52 527.5c-.78-.01-1.57 0-2.38 0 0 2.04.05 3.95-.02 5.86-.08 2.89 0 5.82-.41 8.68-1.3 9.18-5.36 16.86-12.15 22.83-8.84 7.75-19.06 10.43-30.35 8.1-8.04-1.66-14.73-5.91-20.03-12.47-4.81-5.95-7.65-12.83-8.2-20.62-.26-3.7-.15-7.44-.21-11.17v-1.12h-5.44c0 3.78-.06 7.48.04 11.18.07 2 .29 4.04.7 6 3.78 17.14 13.84 28.14 29.95 33.11 1.47.45 3.01.7 4.51 1.05v7.22h.49l1.63.03c.96.01 1.92.02 2.89.02q2.67 0 5.34-.06c.26-.01.52-.01.78-.02v-7.14c.13-.05.21-.07.29-.07 5.35-.78 10.4-2.48 15.06-5.34 11.46-7.03 18.44-17.34 20.55-31.13.19-1.28.31-2.59.45-3.89v-10.93c-1.17-.05-2.34-.09-3.49-.12m-8.59-5.27c0-.19-.03-.39-.06-.66H870.2v-5.78h24.67v-5.77h-24.66v-5.75h24.66v-5.75H870.2v-5.78h24.7v-5.75h-24.68v-5.78h24.66c.02-.22.05-.36.05-.5.01-2.82.03-5.64 0-8.46-.15-15.05-9.43-27.18-23.44-30.63-1.56-.38-3.16-.55-4.74-.82h-4.26c-1.6.28-3.22.49-4.82.84-13.23 2.97-23.03 15.35-23.33 29.5-.07 3.13-.03 6.27-.03 9.4 0 .22.04.43.08.73h24.64v5.75h-24.67v5.75h24.66v5.8h-24.68v5.73h24.68v5.77h-24.65v5.75h24.67v5.78h-24.7c-.01.29-.03.46-.03.63-.01 4.58 0 9.17 0 13.75 0 2.69.31 5.34.99 7.94 4.31 16.61 19.88 26.48 36.01 22.83 13.3-3.01 23.3-15.62 23.58-29.83.1-4.9.04-9.8.04-14.69" fill="#000000" data-color="3"/>
        <path d="M631.68 288.58h-6.48l-6.56-25.46v25.46h-6.68v-31.82h10.87l5.6 22.82 5.72-22.82h10.75v31.82h-6.68v-25.5l-6.52 25.5Z" fill="#ffffff" data-color="1"/>
        <path d="M674.45 260.76c2.8 3.01 4.21 6.99 4.21 11.94s-1.4 8.92-4.21 11.94c-2.8 3.01-6.45 4.52-10.93 4.52s-8.16-1.51-10.95-4.52-4.19-6.99-4.19-11.94 1.4-8.92 4.19-11.94c2.79-3.01 6.44-4.52 10.95-4.52s8.12 1.51 10.93 4.52m-16.55 4.36c-1.49 1.8-2.23 4.32-2.23 7.57s.74 5.77 2.23 7.57 3.36 2.7 5.62 2.7 4.13-.9 5.62-2.7 2.23-4.32 2.23-7.57-.75-5.77-2.23-7.57c-1.49-1.8-3.36-2.7-5.62-2.7s-4.13.9-5.62 2.7" fill="#ffffff" data-color="1"/>
        <path d="M682.2 256.76h9.62c11.38 0 17.07 5.3 17.07 15.89s-5.69 15.93-17.07 15.93h-9.62zm18.63 20.91c.51-1.33.77-3.01.77-5.03s-.26-3.69-.77-5.03c-.51-1.33-1.25-2.31-2.23-2.94s-1.98-1.05-3-1.27q-1.53-.33-3.66-.33h-2.86v19.18h2.86q2.13 0 3.66-.33t3-1.29c.98-.64 1.72-1.63 2.23-2.96" fill="#ffffff" data-color="1"/>
        <path d="M712.39 288.58v-31.82h22.38v6.58h-15.5v5.57h14.65v6.63h-14.65v6.41h15.5v6.63z" fill="#ffffff" data-color="1"/>
        <path d="M745.96 256.76v25.19h14.01v6.63h-20.89v-31.82z" fill="#ffffff" data-color="1"/>
        <path d="M770.75 256.76h6.88v19c0 2.52.4 4.35 1.21 5.51s2.33 1.73 4.59 1.73 3.76-.63 4.53-1.89c.76-1.26 1.15-3.19 1.15-5.79v-18.56h6.88v17.95c0 4.97-.97 8.62-2.92 10.95s-5.16 3.49-9.64 3.49-7.68-1.08-9.68-3.23-3-5.8-3-10.95z" fill="#ffffff" data-color="1"/>
        <path d="M827.55 288.58h-8.37l-11.71-21.94v21.94h-6.64v-31.82h8.37l11.71 21.94v-21.94h6.64z" fill="#ffffff" data-color="1"/>
        <path d="M839.71 256.76v31.82h-6.88v-31.82z" fill="#ffffff" data-color="1"/>
        <path d="M851.86 288.58v-25.24h-9.34v-6.58h25.64v6.58h-9.38v25.24z" fill="#ffffff" data-color="1"/>
        <path d="M871.02 288.58v-31.82h22.38v6.58h-15.5v5.57h14.65v6.63H877.9v6.41h15.5v6.63z" fill="#ffffff" data-color="1"/>
        <path d="M897.71 256.76h9.62c11.38 0 17.07 5.3 17.07 15.89s-5.69 15.93-17.07 15.93h-9.62zm18.64 20.91c.51-1.33.76-3.01.76-5.03s-.25-3.69-.76-5.03c-.51-1.33-1.25-2.31-2.23-2.94s-1.98-1.05-3-1.27q-1.53-.33-3.66-.33h-2.86v19.18h2.86q2.13 0 3.66-.33t3-1.29c.98-.64 1.72-1.63 2.23-2.96" fill="#ffffff" data-color="1"/>
        <path d="M963.28 288.58h-8.37l-11.71-21.94v21.94h-6.64v-31.82h8.37l11.71 21.94v-21.94h6.64z" fill="#ffffff" data-color="1"/>
        <path d="m965.3 288.58 10.99-31.82h7.57l11.03 31.82h-7.49l-1.77-5.66h-11.27l-1.73 5.66zm14.73-23.87-3.78 12.11h7.53l-3.74-12.11Z" fill="#ffffff" data-color="1"/>
        <path d="M1000 288.58v-25.24h-9.34v-6.58h25.64v6.58h-9.38v25.24z" fill="#ffffff" data-color="1"/>
        <path d="M1026.04 256.76v31.82h-6.88v-31.82z" fill="#ffffff" data-color="1"/>
        <path d="M1055.61 260.76c2.8 3.01 4.21 6.99 4.21 11.94s-1.4 8.92-4.21 11.94c-2.8 3.01-6.45 4.52-10.93 4.52s-8.16-1.51-10.95-4.52-4.19-6.99-4.19-11.94 1.39-8.92 4.19-11.94c2.79-3.01 6.44-4.52 10.95-4.52s8.12 1.51 10.93 4.52m-16.55 4.36c-1.49 1.8-2.23 4.32-2.23 7.57s.74 5.77 2.23 7.57 3.36 2.7 5.62 2.7 4.13-.9 5.62-2.7 2.23-4.32 2.23-7.57-.74-5.77-2.23-7.57-3.36-2.7-5.62-2.7-4.13.9-5.62 2.7" fill="#ffffff" data-color="1"/>
        <path d="M1090.08 288.58h-8.37L1070 266.64v21.94h-6.64v-31.82h8.37l11.71 21.94v-21.94h6.64z" fill="#ffffff" data-color="1"/>
        <path d="M1118.14 265.98h-6.8c-.35-1.2-1.03-2.12-2.03-2.76-1.01-.64-2.25-.97-3.72-.97q-2.1 0-3.36.81c-.84.54-1.27 1.29-1.27 2.26 0 .79.3 1.46.91 2.02.6.56 1.43.95 2.48 1.19l3.99.88c1.21.26 2.2.5 2.98.72s1.7.58 2.78 1.08c1.07.5 1.92 1.05 2.56 1.65.63.6 1.18 1.4 1.65 2.41s.7 2.16.7 3.45c0 3.16-1.23 5.69-3.68 7.59q-3.69 2.85-8.55 2.85c-3.76 0-6.8-.96-9.14-2.87-2.33-1.92-3.77-4.6-4.31-8.05h6.84c.75 3.25 3 4.87 6.76 4.87 1.37 0 2.54-.28 3.52-.83.98-.56 1.47-1.43 1.47-2.63 0-.97-.46-1.74-1.39-2.33-.93-.58-2.27-1.08-4.05-1.49l-3.54-.79c-6.04-1.35-9.06-4.43-9.06-9.26 0-2.05.62-3.82 1.87-5.31s2.76-2.57 4.55-3.23q2.67-.99 5.7-.99c3.03 0 3.81.31 5.47.94s3.12 1.7 4.37 3.2c1.25 1.51 2.02 3.37 2.31 5.6Z" fill="#ffffff" data-color="1"/>
        <path d="M681.09 122.4h85.13v21.76h-59.75v26.2h-25.38zm0 117.68h85.13v-21.76h-59.75v-26.2h-25.38zm25.38-47.96h54.64v-21.76h-54.64zm172.65-47.72a38.6 38.6 0 0 1 0 25.8c-1.5 4.18-3.92 7.98-7.08 11.1a35.7 35.7 0 0 1-12.7 7.84 52.9 52.9 0 0 1-18.78 2.98h-27.2v47.96h-25.38V122.4h52.58c6.42-.17 12.82.84 18.87 2.98 4.71 1.7 9 4.37 12.61 7.84 3.16 3.16 5.58 6.98 7.08 11.19Zm-22.94 12.79c.09-2.37-.58-4.7-1.91-6.66a12.3 12.3 0 0 0-5-3.97 24.4 24.4 0 0 0-7.26-1.91c-2.84-.34-5.71-.5-8.57-.49h-20.09v26.2h20.07c2.86.01 5.73-.15 8.57-.49 2.5-.26 4.95-.9 7.26-1.89 1.99-.88 3.72-2.26 5.02-4 1.36-2 2.03-4.38 1.91-6.79m170.1 61.13V122.4h-25.38v117.68h85.13v-21.76zm-128.89-47.96h25.38v-26.2h59.75V122.4h-85.13zm0 69.72h25.38v-47.96h-25.38zm25.38-47.96h54.64v-21.76h-54.64z" fill="#ed2224" data-color="2"/>
    </g>
</svg>
